<?xml version="1.0" standalone="no"?>
<!DOCTYPE svg PUBLIC "-//W3C//DTD SVG 20010904//EN"
 "http://www.w3.org/TR/2001/REC-SVG-20010904/DTD/svg10.dtd">
<svg version="1.0" xmlns="http://www.w3.org/2000/svg"
 width="512.000000pt" height="512.000000pt" viewBox="0 0 512.000000 512.000000"
 preserveAspectRatio="xMidYMid meet">
<metadata>
Created by potrace 1.11, written by Peter Selinger 2001-2013
</metadata>
<g transform="translate(0.000000,512.000000) scale(0.100000,-0.100000)"
fill="#000000" stroke="none">
<path d="M470 5105 c-217 -49 -388 -214 -449 -435 -21 -75 -21 -76 -19 -2130
l3 -2055 22 -65 c63 -185 207 -329 393 -393 l65 -22 2045 -3 c1815 -2 2053 -1
2115 13 182 40 339 164 415 327 64 137 60 -10 57 2248 l-2 2055 -23 59 c-38
102 -81 168 -155 241 -82 80 -164 127 -269 155 -71 18 -136 19 -2108 18 -1589
0 -2047 -3 -2090 -13z"/>
</g>
</svg>
