<?xml version="1.0" encoding="utf-8"?>
<!-- Generator: Adobe Illustrator 22.1.0, SVG Export Plug-In . SVG Version: 6.00 Build 0)  -->
<svg version="1.1" id="Layer_1" xmlns="http://www.w3.org/2000/svg" xmlns:xlink="http://www.w3.org/1999/xlink" x="0px" y="0px"
	 viewBox="0 0 307.31229 158.53732" style="enable-background:new 0 0 307.31229 158.53732;" xml:space="preserve">
<style type="text/css">
	.st0{fill:#4F1B63;}
	.st1{fill:#85FD5E;}
</style>
<g>
	<polygon class="st0" points="0,56.90212 0,158.53732 307.31229,101.63519 307.31229,0 	"/>
	<g>
		<g>
			<path class="st1" d="M122.21681,82.94147c-1.49959-8.09756-8.49624-11.10782-17.31927-9.47415
				c-11.15288,2.06489-20.8194,12.5856-19.36021,26.65578c1.07374,12.83804,9.35938,18.96761,21.23773,16.76829
				c5.49992-1.01832,11.72747-3.87019,15.31125-8.83985l-4.67397-5.61327c-3.46436,3.05103-7.3846,4.92283-10.89829,5.57358
				c-4.12548,0.76374-7.00381,0.15089-8.11902-2.88226l-7.1268-0.29999l0.00143-0.63216
				C114.41781,99.27926,123.80794,91.53568,122.21681,82.94147z M106.15685,81.49766
				c3.14291-0.5821,5.31078,0.40333,5.78775,2.97916c0.6815,3.6796-3.73896,7.04957-14.51068,9.23244
				C97.16969,87.95762,100.82033,82.48595,106.15685,81.49766z"/>
			<path class="st1" d="M150.4494,65.0526c-6.20251,1.14847-9.55316,4.74834-11.42461,8.39755l-0.15233,0.02824l-1.80458-4.91711
				l-8.4308,2.02699l0.0025,40.75348l11.80112-2.18502l0.01967-24.9724c0.00609-1.51103,0.19058-2.83184,0.59105-3.9846
				c-2.6216,1.12415-4.76837,3.40822-6.07666,6.24649l-0.5274,0.09798c0.55743-4.23525,4.89423-10.74777,13.32146-12.30814
				c4.49948-0.8331,6.93408,0.39903,7.02919,6.33946l-0.05721,25.93316l11.80112-2.18503l0.04898-26.13517
				C166.612,68.37036,160.28398,63.23157,150.4494,65.0526z"/>
			<path class="st1" d="M256.93164,80.1604c-4.12514,0.76374-7.00381,0.15089-8.11903-2.88226l-7.12643-0.29999l0.00143-0.63216
				c23.14778-4.91818,32.53862-12.66212,30.94749-21.25597c-1.49921-8.09756-8.49658-11.10783-17.31998-9.47415
				c-11.15288,2.06488-20.8194,12.58524-19.36021,26.65577c1.07375,12.83804,9.35938,18.96761,21.23775,16.76829
				c5.50027-1.01832,11.72781-3.87019,15.31158-8.83985l-4.67432-5.61327C264.36594,77.63785,260.44568,79.50965,256.93164,80.1604z
				 M256.57443,53.64622c3.14328-0.5821,5.31076,0.40332,5.78775,2.97915c0.68149,3.67961-3.73895,7.04957-14.51068,9.23244
				C247.58727,60.10618,251.23827,54.63451,256.57443,53.64622z"/>
			<path class="st1" d="M230.16716,83.04411c-2.05666,1.27254-4.26349,2.22507-6.54471,2.64735
				c-1.8936,0.35076-2.98952,0.12693-2.9888-2.6384l0.00607-17.62678l-7.41963-0.86671v-0.56226l11.65381-2.15767l2.12602-0.39367
				l3.25841-0.6032l0.2299-9.11302l-9.86459,1.8264l-0.6597-11.77037l-10.89865,3.48366l-0.07831,10.44134l-4.04788,0.74944
				l-0.62108,0.11514l-5.45737,1.01045l-4.30568,0.79735l-5.55893,1.02905l-0.65933-11.77037l-10.899,3.48367l-0.07831,10.44134
				l-3.55553,0.65862l-1.11343,0.20595l-0.00107,9.07083l1.19279-0.22097l1.54536-0.28604l1.93652-0.35863l0.00392-0.00071
				l0.02003,20.40892c-0.02039,8.68145,6.04483,11.35883,12.62135,10.14099c4.58743-0.84956,7.86122-2.52613,9.36009-3.48795
				l-0.8299-8.79766c-2.05666,1.27254-4.26349,2.22507-6.54434,2.64735c-1.8936,0.35076-2.98987,0.12729-2.98915-2.6384
				l0.00607-17.66862l-7.44359-0.87923l-0.00322-0.50255l5.66832-1.0496l8.83055-1.6351l2.56689-0.4752l5.6855-1.053l4.6786-0.86617
				l0.02003,20.40874c-0.02003,8.68181,6.04518,11.35883,12.6217,10.14135c4.58745-0.84955,7.86087-2.52613,9.35974-3.48795
				L230.16716,83.04411z"/>
			<path class="st1" d="M80.2257,101.7998c-1.25693-6.80642-5.00838-9.40098-8.52924-10.54872l0.04848-0.16672
				c3.75811-2.9107,6.37694-7.53568,5.16138-14.11555c-1.22724-6.64602-5.79874-11.32995-19.75251-8.7532
				c-4.37135,0.8073-10.34181,2.17522-14.80698,3.20802l-9.52942,2.12476l-0.12671,12.15744l6.48698-1.66325l-0.00024,43.84332
				c4.25845-0.55322,12.60545-1.45065,19.53128-2.72987C76.92628,121.79212,82.07063,111.78898,80.2257,101.7998z
				 M51.44595,85.23705l-7.67039-2.17851l0.02912-0.20216l7.03151-1.80269c3.69123-0.91414,7.1868-1.75473,8.61346-2.0181
				c4.78527-0.88346,5.69794-0.01351,6.15668,2.47084c0.82169,4.44867-1.67494,7.77157-5.71506,8.51783l-8.52978,1.575
				L51.44595,85.23705z M58.88434,113.65481c-2.23045,0.41209-4.35789,0.72595-7.54145,1.11934l0.079-12.36217l10.15677-1.87584
				c4.24799-0.78423,5.28911,0.83598,5.66125,2.85316C68.189,108.52631,65.81303,112.37531,58.88434,113.65481z"/>
		</g>
	</g>
</g>
</svg>
