<?xml version="1.0" encoding="UTF-8" standalone="no"?>
<svg
   xmlns:dc="http://purl.org/dc/elements/1.1/"
   xmlns:cc="http://creativecommons.org/ns#"
   xmlns:rdf="http://www.w3.org/1999/02/22-rdf-syntax-ns#"
   xmlns:svg="http://www.w3.org/2000/svg"
   xmlns="http://www.w3.org/2000/svg"
   viewBox="0 0 325.04001 120.94467"
   height="120.94467"
   width="325.04001"
   xml:space="preserve"
   id="svg2"
   version="1.1"><metadata
     id="metadata8"><rdf:RDF><cc:Work
         rdf:about=""><dc:format>image/svg+xml</dc:format><dc:type
           rdf:resource="http://purl.org/dc/dcmitype/StillImage" /></cc:Work></rdf:RDF></metadata><defs
     id="defs6"><clipPath
       id="clipPath18"
       clipPathUnits="userSpaceOnUse"><path
         id="path16"
         d="M 0,90.708 H 243.78 V 0 H 0 Z" /></clipPath></defs><g
     transform="matrix(1.3333333,0,0,-1.3333333,0,120.94467)"
     id="g10"><g
       id="g12"><g
         clip-path="url(#clipPath18)"
         id="g14"><path
           id="path20"
           style="fill:#2d7bc8;fill-opacity:1;fill-rule:nonzero;stroke:none"
           d="M 57.26,79.37 H 56.126 V 11.339 H 57.26 Z M 45.29,26.152 c 0.041,0.101 0.064,0.212 0.064,0.328 0,0.473 -0.383,0.858 -0.856,0.858 h -0.866 c -0.059,0 -0.114,0.014 -0.163,0.04 -0.048,0.025 -0.092,0.063 -0.125,0.111 L 42.91,28.13 c 0.033,-0.048 0.076,-0.086 0.125,-0.111 0.048,-0.026 0.104,-0.041 0.163,-0.04 l 1.141,-10e-4 c 0.059,0 0.115,-0.014 0.163,-0.04 0.049,-0.025 0.092,-0.063 0.125,-0.111 l -0.524,0.768 c -0.033,0.048 -0.077,0.085 -0.126,0.111 -0.048,0.025 -0.104,0.04 -0.162,0.04 l -1.132,-10e-4 c -0.058,0 -0.114,0.015 -0.162,0.04 -0.049,0.026 -0.093,0.063 -0.126,0.112 l -0.492,0.724 c 0.033,-0.049 0.077,-0.086 0.125,-0.111 0.049,-0.026 0.104,-0.041 0.163,-0.04 h 1.136 c 0.059,0.001 0.115,-0.014 0.163,-0.04 0.049,-0.025 0.092,-0.062 0.125,-0.111 l -0.524,0.768 c -0.033,0.048 -0.077,0.086 -0.126,0.111 -0.048,0.026 -0.104,0.04 -0.162,0.04 H 41.9 c -0.059,0 -0.114,0.015 -0.163,0.041 -0.048,0.025 -0.092,0.062 -0.125,0.111 l -0.607,0.891 c 1.227,0.146 2.217,0.811 2.414,1.727 0.256,1.189 -0.926,2.341 -2.636,2.592 -0.288,0.042 -0.508,0.289 -0.508,0.588 0,0.255 0.16,0.472 0.385,0.557 -0.182,0.078 -0.386,0.122 -0.602,0.122 -0.756,0 -1.37,-0.542 -1.37,-1.211 0,-0.12 0.021,-0.237 0.058,-0.347 -0.848,-0.366 -1.62,-1.015 -2.211,-1.716 0.632,0.168 1.296,0.258 1.981,0.258 -0.003,0.032 -0.005,0.064 -0.005,0.097 0,0.513 0.415,0.928 0.928,0.928 h 0.013 c -0.35,-0.154 -0.52,-0.49 -0.52,-0.712 0,-0.265 0.215,-0.479 0.479,-0.479 0.103,0 0.199,0.032 0.277,0.087 -0.018,0.061 -0.028,0.124 -0.028,0.191 0,0.367 0.297,0.664 0.665,0.664 0.032,0 0.065,-0.002 0.096,-0.007 -0.253,-0.118 -0.429,-0.376 -0.429,-0.674 0,-0.411 0.333,-0.744 0.744,-0.744 0.044,0 0.086,0.003 0.128,0.011 -0.012,0.043 -0.018,0.088 -0.018,0.135 0,0.295 0.239,0.534 0.533,0.534 0.295,0 0.534,-0.239 0.534,-0.534 0,-0.641 -0.712,-0.7 -1.231,-0.551 -1.478,0.426 -2.862,0.617 -4.201,0.43 -1.718,-0.241 -4.532,-1.403 -7.519,-1.306 -0.668,0.021 -1.397,0.132 -2.131,0.333 0.09,-0.098 0.148,-0.167 0.186,-0.225 0.291,-0.453 0.391,-0.928 0.134,-1.522 0.007,0.666 -0.543,1.214 -1.004,1.55 -0.186,0.135 -0.261,0.264 -0.23,0.437 l 0.136,0.768 c -0.01,-0.057 -0.005,-0.114 0.012,-0.165 0.017,-0.053 0.046,-0.102 0.088,-0.143 l 0.287,-0.281 c 0.109,0.778 -0.067,1.502 -0.53,2.173 0.205,0.536 0.233,1.127 0.096,1.682 -0.054,-0.42 -0.26,-0.6 -0.455,-0.722 -0.364,-0.227 -0.424,-0.611 -0.236,-0.868 -0.306,0.157 -0.73,0.726 -0.485,1.058 0.264,0.359 0.987,0.19 1.076,0.806 -0.469,0.149 -0.952,0.044 -1.099,0.004 -0.278,0.319 -0.647,0.477 -1.106,0.474 -0.363,0.33 -0.829,0.466 -1.399,0.409 -0.569,0.057 -1.035,-0.079 -1.398,-0.409 -0.459,0.003 -0.828,-0.155 -1.106,-0.474 -0.148,0.04 -0.63,0.145 -1.1,-0.004 0.089,-0.616 0.812,-0.447 1.076,-0.806 0.245,-0.332 -0.178,-0.901 -0.485,-1.058 0.189,0.257 0.128,0.641 -0.236,0.868 -0.194,0.122 -0.401,0.302 -0.455,0.722 -0.137,-0.555 -0.108,-1.146 0.096,-1.682 -0.463,-0.671 -0.639,-1.395 -0.53,-2.173 l 0.288,0.281 c 0.042,0.041 0.071,0.09 0.088,0.143 0.017,0.051 0.021,0.108 0.011,0.165 l 0.136,-0.768 c 0.031,-0.173 -0.043,-0.302 -0.229,-0.437 -0.462,-0.336 -1.012,-0.884 -1.005,-1.55 -0.256,0.594 -0.152,1.089 0.135,1.522 -0.876,0.473 -1.543,1.25 -1.666,1.392 -0.265,0.308 -0.23,0.701 0.01,1.045 0.463,0.663 0.573,1.368 -0.008,1.851 0.004,0.035 0.006,0.071 0.006,0.107 0,0.439 -0.312,0.805 -0.727,0.888 0.077,-0.12 0.122,-0.263 0.122,-0.416 0,-0.175 -0.058,-0.336 -0.157,-0.465 0.082,-0.108 0.131,-0.243 0.131,-0.389 0,-0.196 -0.088,-0.371 -0.227,-0.488 0.014,0.067 0.021,0.138 0.021,0.209 0,0.452 -0.28,0.83 -0.659,0.934 -0.061,0.328 -0.349,0.577 -0.695,0.577 -0.201,0 -0.381,-0.083 -0.51,-0.217 0.268,-0.02 0.484,-0.231 0.513,-0.497 -0.128,-0.096 -0.231,-0.228 -0.298,-0.384 h 0.017 c 0.463,0 0.838,-0.375 0.838,-0.838 0,-0.052 -0.005,-0.104 -0.014,-0.154 -0.035,0.191 -0.121,0.366 -0.26,0.502 -0.26,0.253 -0.638,0.306 -0.984,0.174 -0.13,0.163 -0.33,0.268 -0.554,0.268 -0.254,0 -0.476,-0.133 -0.601,-0.333 0.256,-0.011 0.481,-0.14 0.622,-0.335 -0.364,-0.466 -0.368,-1.11 0.004,-1.473 0.252,-0.246 0.613,-0.303 0.95,-0.187 0.022,0.008 0.046,0.012 0.071,0.012 0.124,0 0.224,-0.1 0.224,-0.224 0,-0.123 -0.1,-0.223 -0.224,-0.223 -0.054,0 -0.104,0.019 -0.142,0.051 -0.085,0.071 -0.195,0.113 -0.314,0.113 -0.27,0 -0.49,-0.219 -0.49,-0.49 0,-0.02 10e-4,-0.041 0.004,-0.06 -0.046,-0.015 -0.095,-0.023 -0.146,-0.023 -0.132,0 -0.252,0.054 -0.34,0.14 -0.014,-0.053 -0.021,-0.109 -0.021,-0.167 0,-0.345 0.266,-0.628 0.605,-0.654 0.152,-0.378 0.523,-0.644 0.955,-0.644 0.222,0 0.427,0.07 0.595,0.188 0.074,0.052 0.162,0.082 0.258,0.082 0.249,0 0.451,-0.202 0.451,-0.451 0,-0.215 -0.15,-0.394 -0.351,-0.439 l -0.351,-0.078 c -0.057,-0.013 -0.115,-0.01 -0.168,0.005 -0.053,0.014 -0.103,0.041 -0.145,0.082 l 0.803,-0.763 c 0.043,-0.04 0.093,-0.068 0.146,-0.082 0.053,-0.015 0.11,-0.018 0.168,-0.005 l 0.657,0.146 c 0.057,0.013 0.115,0.01 0.167,-0.005 0.053,-0.014 0.104,-0.041 0.146,-0.082 l 0.551,-0.524 c -0.043,0.041 -0.093,0.068 -0.146,0.082 -0.053,0.015 -0.11,0.018 -0.167,0.005 l -0.657,-0.145 c -0.057,-0.013 -0.115,-0.01 -0.167,0.005 -0.053,0.014 -0.104,0.041 -0.146,0.081 l 0.736,-0.697 c 0.042,-0.041 0.093,-0.068 0.145,-0.082 0.053,-0.015 0.111,-0.018 0.168,-0.005 l 0.658,0.144 c 0.058,0.013 0.115,0.01 0.168,-0.005 0.053,-0.014 0.103,-0.042 0.146,-0.082 l 0.551,-0.524 c -0.043,0.04 -0.093,0.068 -0.146,0.082 -0.053,0.015 -0.11,0.018 -0.168,0.005 L 16.89,28.424 c -0.058,-0.013 -0.115,-0.01 -0.168,0.005 -0.053,0.014 -0.103,0.041 -0.146,0.082 l 0.736,-0.698 c 0.043,-0.041 0.093,-0.068 0.146,-0.082 0.053,-0.015 0.11,-0.018 0.168,-0.005 l 0.795,0.174 c -0.772,-0.436 -1.594,-0.93 -2.465,-1.481 -0.515,-0.325 -1.078,-0.386 -1.725,-0.138 -0.347,0.133 -0.725,0.155 -0.963,0.114 -0.31,-0.053 -0.573,-0.241 -0.726,-0.502 0.12,0.049 0.251,0.075 0.389,0.075 0.289,0 0.55,-0.117 0.74,-0.305 -0.301,0.126 -0.675,0.139 -1.038,0.007 -0.65,-0.237 -1.029,-0.85 -0.881,-1.398 -0.242,-0.094 -0.413,-0.328 -0.413,-0.603 0,-0.181 0.074,-0.344 0.194,-0.462 0.064,0.288 0.316,0.505 0.621,0.516 0.127,-0.084 0.275,-0.143 0.434,-0.175 0.048,0.083 0.109,0.158 0.179,0.221 -0.007,0.052 -0.011,0.105 -0.011,0.159 0,0.593 0.48,1.074 1.073,1.074 0.049,0 0.098,-0.003 0.145,-0.01 -0.471,-0.113 -0.822,-0.537 -0.822,-1.044 0,-0.064 0.006,-0.127 0.017,-0.188 -0.254,-0.097 -0.433,-0.343 -0.433,-0.631 0,-0.165 0.059,-0.316 0.158,-0.434 0.182,0.356 0.537,0.608 0.954,0.648 0.157,-0.046 0.323,-0.071 0.495,-0.071 0.107,0 0.212,0.01 0.314,0.028 -0.092,0.135 -0.146,0.297 -0.146,0.472 0,0.461 0.374,0.835 0.835,0.835 0.04,0 0.079,-0.003 0.118,-0.009 -0.441,-0.187 -0.711,-0.57 -0.618,-0.918 0.066,-0.248 0.299,-0.419 0.6,-0.475 -0.004,-0.186 -0.055,-0.36 -0.142,-0.511 0.387,0.028 0.718,0.262 0.883,0.592 0.456,0.183 0.737,0.574 0.643,0.929 -0.034,0.127 -0.112,0.234 -0.22,0.316 -10e-4,0.012 -0.002,0.024 -0.002,0.036 0,0.244 0.199,0.443 0.443,0.443 0.245,0 0.443,-0.199 0.443,-0.443 0,-0.116 -0.044,-0.221 -0.117,-0.3 h 0.927 c 0.058,0 0.114,0.015 0.162,0.041 0.049,0.025 0.092,0.063 0.125,0.112 l 0.595,0.882 c 0.022,0.033 0.052,0.058 0.085,0.076 0.033,0.018 0.071,0.028 0.111,0.028 h 0.728 c -0.04,0 -0.078,-0.01 -0.111,-0.028 -0.033,-0.018 -0.063,-0.043 -0.085,-0.076 L 19.317,24.42 C 19.284,24.371 19.241,24.333 19.192,24.308 19.144,24.282 19.089,24.267 19.03,24.267 h 1.108 c 0.059,0 0.114,0.015 0.162,0.041 0.049,0.025 0.093,0.063 0.125,0.112 l 0.668,0.985 c -0.461,0.252 -0.65,0.693 -0.65,1.299 0,0.377 0.212,0.807 0.244,1.084 l 0.013,0.11 c 0.007,0.059 -10e-4,0.116 -0.021,0.167 -0.016,0.041 -0.048,0.101 -0.083,0.142 l 0.57,-0.584 c 0.045,-0.038 0.077,-0.086 0.096,-0.137 0.021,-0.051 0.029,-0.108 0.022,-0.166 l -0.017,-0.134 c -0.027,-0.232 -0.319,-0.732 0.223,-1.19 0.027,-0.023 0.094,-0.07 0.158,-0.111 l 0.385,-0.242 v 1.421 h 0.539 v -1.581 c 0.001,-0.059 0.018,-0.114 0.045,-0.161 0.027,-0.048 0.065,-0.091 0.115,-0.122 l 0.527,-0.335 c 0.05,-0.031 0.105,-0.049 0.159,-0.053 0.055,-0.004 0.112,0.004 0.165,0.028 l 0.971,0.421 c -0.054,-0.023 -0.111,-0.032 -0.165,-0.027 -0.055,0.004 -0.11,0.021 -0.159,0.053 l -1.115,0.709 c 0.542,0.458 0.249,0.958 0.222,1.19 l -0.016,0.134 c -0.007,0.058 10e-4,0.115 0.021,0.166 0.02,0.051 0.052,0.099 0.096,0.137 l 0.57,0.584 c -0.035,-0.041 -0.066,-0.101 -0.082,-0.142 -0.02,-0.051 -0.028,-0.108 -0.021,-0.167 l 0.012,-0.11 c 0.046,-0.395 0.446,-1.111 0.113,-1.51 l 1.019,-0.647 c 0.05,-0.031 0.105,-0.048 0.159,-0.052 0.055,-0.005 0.112,0.003 0.166,0.027 l 1.015,0.441 c -0.054,-0.023 -0.11,-0.031 -0.164,-0.027 -0.055,0.004 -0.11,0.022 -0.16,0.053 l -1.102,0.701 c 0.24,0.492 0.038,1.273 -0.195,1.725 l -0.035,0.067 c -0.026,0.053 -0.038,0.109 -0.036,0.164 0,0.055 0.014,0.11 0.043,0.162 l 0.378,0.682 c -0.028,-0.051 -0.042,-0.107 -0.042,-0.161 -0.002,-0.055 0.01,-0.111 0.036,-0.163 l 0.139,-0.271 c 0.073,-0.133 0.114,-0.214 0.178,-0.371 0.62,0.559 0.758,1.098 0.363,1.558 l -0.118,0.138 c -0.038,0.044 -0.063,0.096 -0.075,0.15 -0.013,0.053 -0.013,0.11 0.003,0.167 l 0.202,0.753 c -0.015,-0.056 -0.015,-0.113 -0.003,-0.166 0.012,-0.053 0.037,-0.105 0.076,-0.149 l 0.388,-0.453 c 0.754,-0.852 0.298,-1.95 -0.602,-2.787 0.05,-0.161 0.093,-0.462 0.057,-0.625 l 1.195,-0.758 c 0.05,-0.032 0.105,-0.049 0.16,-0.053 0.054,-0.005 0.111,0.004 0.165,0.027 l 0.864,0.376 C 28.055,26.765 28,26.753 27.944,26.753 c -0.223,0 -0.403,0.18 -0.403,0.402 0,0.18 0.117,0.335 0.281,0.384 3.299,1.004 6.336,3.594 8.33,3.588 0.969,-0.003 1.755,-0.59 1.755,-1.317 0,-0.117 -0.021,-0.231 -0.059,-0.34 -0.425,-1.194 0.194,-2.334 1.829,-2.773 0.26,-0.071 0.452,-0.309 0.452,-0.591 0,-0.055 -0.008,-0.109 -0.021,-0.159 0.037,-0.004 0.075,-0.005 0.114,-0.005 0.45,0 0.848,0.224 1.089,0.566 0.281,0.002 0.587,0.019 0.901,0.052 0.038,-0.076 0.068,-0.163 0.086,-0.257 0.067,-0.343 -0.052,-0.654 -0.263,-0.722 -0.375,-0.122 -0.835,0.024 -1.19,0.021 -0.672,-0.007 -1.215,-0.553 -1.215,-1.226 0,-0.053 0.003,-0.105 0.01,-0.156 -0.211,-0.132 -0.351,-0.366 -0.351,-0.632 0,-0.133 0.035,-0.258 0.096,-0.366 0.207,0.242 0.476,0.428 0.783,0.536 0.026,0.59 0.512,1.06 1.108,1.06 0.091,0 0.181,-0.011 0.265,-0.032 -0.604,-0.076 -1.072,-0.592 -1.072,-1.217 0,-0.045 0.003,-0.09 0.008,-0.135 -0.075,-0.09 -0.12,-0.207 -0.12,-0.333 0,-0.161 0.072,-0.305 0.185,-0.401 0.114,0.249 0.389,0.484 0.745,0.604 0.239,0.08 0.474,0.096 0.67,0.056 -0.031,0.094 -0.047,0.194 -0.047,0.298 0,0.533 0.432,0.965 0.965,0.965 0.049,0 0.098,-0.004 0.145,-0.011 -0.372,-0.05 -0.658,-0.369 -0.658,-0.754 0,-0.256 0.126,-0.482 0.319,-0.62 0,-0.014 -10e-4,-0.028 -10e-4,-0.042 0,-0.209 0.096,-0.396 0.247,-0.519 0.067,0.35 0.374,0.614 0.744,0.614 0.316,0 0.577,0.04 0.772,0.104 0.33,0.108 0.571,0.413 0.571,0.778 0,0.253 -0.115,0.479 -0.296,0.628 0.089,0.41 0.073,1.083 -0.066,1.643 0.028,0.004 0.057,0.006 0.087,0.006 0.23,0 0.433,-0.118 0.551,-0.298 m -25.936,2.827 0.138,0.271 c 0.027,0.052 0.038,0.108 0.037,0.163 -0.001,0.054 -0.015,0.11 -0.043,0.161 l 0.379,-0.682 c 0.028,-0.052 0.042,-0.107 0.043,-0.162 0.002,-0.055 -0.01,-0.111 -0.037,-0.164 l -0.034,-0.067 c -0.233,-0.452 -0.45,-1.299 -0.209,-1.79 -0.562,0.209 -0.747,0.701 -0.687,1.11 -1.057,1.003 -1.324,2.019 -0.569,2.871 l 0.388,0.453 c 0.039,0.044 0.064,0.096 0.075,0.149 0.013,0.053 0.013,0.11 -0.002,0.166 l 0.202,-0.753 c 0.015,-0.057 0.016,-0.114 0.003,-0.167 -0.012,-0.054 -0.037,-0.106 -0.075,-0.15 L 18.845,30.25 c -0.395,-0.46 -0.289,-1.083 0.33,-1.642 0.064,0.157 0.106,0.238 0.179,0.371 m 1.408,5.442 h -0.249 c -0.27,0 -0.509,0.362 -0.509,0.688 0.148,-0.166 0.304,-0.237 0.516,-0.237 h 1.142 c 0.102,0 0.204,-0.079 0.248,-0.21 0.032,-0.097 0.014,-0.241 -0.004,-0.381 -0.055,0.104 -0.124,0.14 -0.213,0.14 h -0.26 c 0.062,-0.075 0.099,-0.171 0.099,-0.277 0,-0.24 -0.195,-0.435 -0.435,-0.435 -0.24,0 -0.435,0.195 -0.435,0.435 0,0.106 0.037,0.202 0.1,0.277 m 0.287,2.062 0.474,-0.603 c 0.106,-0.128 0.139,-0.213 0.264,-0.231 h -0.398 c -0.199,0 -0.336,0.081 -0.452,0.215 l -0.455,0.594 c -0.075,0.094 -0.134,0.16 -0.232,0.204 h 0.45 c 0.135,0 0.255,-0.059 0.349,-0.179 m 1.319,0.147 0.582,-0.818 c 0.092,-0.134 0.179,-0.209 0.304,-0.26 h -0.533 c -0.205,0 -0.328,0.094 -0.418,0.242 l -0.458,0.702 c -0.175,0.263 -0.244,0.329 -0.445,0.4 h 0.495 c 0.195,0 0.377,-0.127 0.473,-0.266 m 2.081,-0.981 h -0.398 c -0.199,0 -0.336,0.081 -0.452,0.215 l -0.455,0.594 c -0.075,0.094 -0.134,0.16 -0.232,0.204 h 0.45 c 0.135,0 0.255,-0.059 0.349,-0.179 l 0.474,-0.603 c 0.106,-0.128 0.139,-0.213 0.264,-0.231 m 0.151,-0.54 c 0,-0.326 -0.238,-0.688 -0.509,-0.688 h -0.248 c 0.062,-0.075 0.1,-0.171 0.1,-0.277 0,-0.24 -0.195,-0.435 -0.435,-0.435 -0.241,0 -0.436,0.195 -0.436,0.435 0,0.106 0.038,0.202 0.1,0.277 h -0.26 c -0.089,0 -0.158,-0.036 -0.213,-0.14 -0.018,0.14 -0.036,0.284 -0.004,0.381 0.044,0.131 0.146,0.21 0.248,0.21 h 1.142 c 0.211,0 0.368,0.071 0.515,0.237 M 24.249,32.638 C 24.17,32.616 24.127,32.57 24.118,32.487 24.071,32.041 23.89,31.861 23.601,31.76 c -0.004,-0.45 -0.066,-0.79 -0.188,-1.212 0.343,-0.717 0.08,-1.218 -0.198,-1.325 -0.265,-0.103 -0.607,0.035 -0.91,0.035 -0.303,0 -0.65,-0.138 -0.915,-0.035 -0.279,0.107 -0.541,0.608 -0.199,1.325 -0.121,0.422 -0.184,0.762 -0.187,1.212 -0.289,0.101 -0.471,0.281 -0.518,0.727 -0.009,0.083 -0.052,0.129 -0.13,0.151 -1.14,0.312 -1.248,1.728 -0.671,2.129 -0.051,-0.634 -0.106,-1.529 1.19,-1.648 -0.021,-0.744 0.301,-0.943 0.632,-0.943 0.271,0 0.426,0.087 0.494,0.123 0.241,0.128 0.075,0.323 0.013,0.381 -0.166,0.155 -0.25,0.375 -0.21,0.594 0.007,0.04 0.022,0.06 0.059,0.06 h 0.439 0.439 c 0.037,0 0.053,-0.02 0.06,-0.06 0.039,-0.219 -0.045,-0.439 -0.21,-0.594 -0.062,-0.058 -0.228,-0.253 0.013,-0.381 0.067,-0.036 0.223,-0.123 0.494,-0.123 0.331,0 0.653,0.199 0.632,0.943 1.296,0.119 1.241,1.014 1.19,1.648 0.577,-0.401 0.468,-1.817 -0.671,-2.129 m -1.148,-2.73 c 0.034,0.379 -0.397,0.514 -0.799,0.514 -0.402,0 -0.832,-0.135 -0.799,-0.514 0.041,-0.462 0.473,-0.242 0.799,-0.244 0.326,0.002 0.758,-0.218 0.799,0.244 m -0.133,0.899 c 0.062,0.334 0.088,0.658 0.076,0.97 l -0.299,-0.35 c -0.059,0.14 -0.098,0.225 -0.138,0.294 -0.033,0.057 -0.061,0.096 -0.1,0.103 -0.02,-0.01 -0.05,-0.026 -0.083,-0.034 -0.038,-0.009 -0.09,-0.006 -0.122,-0.006 -0.031,0 -0.083,-0.003 -0.122,0.006 -0.032,0.008 -0.062,0.024 -0.082,0.034 -0.04,-0.007 -0.067,-0.046 -0.1,-0.103 -0.04,-0.069 -0.079,-0.154 -0.138,-0.294 l -0.3,0.35 c -0.011,-0.312 0.014,-0.636 0.077,-0.97 0.221,0.049 0.449,0.066 0.665,0.066 0.216,0 0.444,-0.017 0.666,-0.066 m 5.44,9.331 c 0.048,0 0.095,-0.003 0.141,-0.008 -0.468,-0.135 -0.846,-0.484 -1.021,-0.934 -0.291,-0.096 -0.501,-0.371 -0.501,-0.694 0,-0.151 0.046,-0.291 0.124,-0.407 0.253,0.282 0.585,0.493 0.962,0.595 0.108,0.542 0.559,0.96 1.117,1.019 -0.487,-0.204 -0.829,-0.686 -0.829,-1.247 0,-0.199 0.043,-0.387 0.12,-0.557 0.086,0.309 0.369,0.536 0.705,0.536 0.085,0 0.166,-0.014 0.241,-0.041 0.104,-0.038 0.217,-0.058 0.334,-0.058 0.541,0 0.979,0.439 0.979,0.981 0,0.108 -0.017,0.212 -0.049,0.31 0.257,-0.075 0.446,-0.313 0.446,-0.595 0,-0.129 -0.04,-0.248 -0.107,-0.348 0.072,-0.013 0.146,-0.019 0.222,-0.019 0.637,0 1.163,0.479 1.236,1.096 0.32,0.174 0.601,0.408 0.843,0.7 l 0.17,-0.829 C 33.553,39.58 33.55,39.523 33.534,39.47 33.519,39.418 33.491,39.367 33.45,39.326 l 0.703,0.722 c 0.041,0.042 0.069,0.092 0.083,0.145 0.016,0.053 0.019,0.11 0.007,0.167 l -0.207,1.012 c -0.012,0.057 -0.009,0.115 0.007,0.167 0.015,0.053 0.043,0.103 0.084,0.145 l 0.553,0.564 C 34.639,42.206 34.611,42.156 34.596,42.103 34.581,42.05 34.578,41.993 34.59,41.935 l 0.207,-1.013 c 0.012,-0.057 0.009,-0.114 -0.006,-0.167 -0.015,-0.052 -0.042,-0.101 -0.082,-0.143 l 0.627,0.652 c 0.04,0.042 0.068,0.092 0.083,0.144 0.016,0.053 0.019,0.111 0.007,0.168 l -0.207,1.01 c -0.012,0.057 -0.009,0.115 0.007,0.167 0.015,0.053 0.043,0.103 0.084,0.145 l 0.553,0.564 C 35.822,43.42 35.794,43.37 35.779,43.317 35.764,43.264 35.761,43.207 35.773,43.15 l 0.208,-1.013 c 0.012,-0.057 0.008,-0.115 -0.007,-0.167 -0.015,-0.052 -0.042,-0.101 -0.082,-0.143 l 0.627,0.651 c 0.041,0.042 0.068,0.092 0.083,0.145 0.016,0.053 0.019,0.11 0.007,0.168 l -0.101,0.494 c -0.106,0.559 0.471,1.202 0.929,1.267 0.055,0.106 0.085,0.221 0.085,0.34 0,0.567 -0.675,1.027 -1.509,1.027 -0.407,0 -0.777,-0.11 -1.049,-0.289 0.109,-0.323 0.132,-0.651 -0.937,-0.803 -0.848,-0.12 -1.594,-0.285 -2.161,-0.766 -0.874,-0.741 -0.803,-1.732 -1.3,-2.107 0.221,-0.054 0.502,-0.054 0.803,0.011 0.19,0.041 0.366,0.104 0.521,0.181 -0.093,-0.178 -0.306,-0.347 -0.586,-0.467 -0.092,-0.35 -0.403,-0.684 -0.823,-0.84 -0.265,-0.098 -0.528,-0.108 -0.746,-0.045 l -1.023,0.296 c -0.126,0.036 -0.257,0.055 -0.394,0.055 -0.754,0 -1.376,-0.581 -1.468,-1.332 -0.356,-0.05 -0.629,-0.356 -0.629,-0.725 0,-0.136 0.037,-0.262 0.101,-0.371 0.245,0.249 0.556,0.434 0.904,0.528 0.146,0.515 0.62,0.893 1.182,0.893 m 0.073,-5.77 c -0.018,0.09 -0.016,0.181 0.003,0.273 0.038,0.176 0.194,0.308 0.382,0.308 0.216,0 0.39,-0.175 0.39,-0.391 0,-0.103 -0.04,-0.197 -0.105,-0.267 0.073,-0.007 0.148,-0.011 0.226,-0.011 0.201,0 0.392,0.025 0.56,0.07 0.275,0.074 0.477,0.325 0.477,0.623 0,0.356 -0.289,0.644 -0.645,0.644 -0.019,0 -0.039,0 -0.058,-0.002 0.09,0.038 0.189,0.059 0.293,0.059 0.413,0 0.749,-0.335 0.749,-0.749 0,-0.021 -0.001,-0.043 -0.003,-0.063 1.116,0.024 2.374,1.042 2.649,1.43 -0.35,-0.08 -0.729,-0.124 -1.125,-0.124 -0.449,0 -0.878,0.055 -1.266,0.158 -0.549,0.145 -1.089,0.226 -1.504,0.226 -1.369,0 -2.479,-0.893 -2.479,-1.995 0,-0.91 0.752,-1.705 1.794,-1.918 2.371,-0.484 5.16,0.924 7.516,1.412 0.589,0.576 1.27,1.057 2.019,1.421 -0.022,0.086 -0.034,0.176 -0.034,0.268 v 0.006 c -3.126,-0.514 -5.939,-2.118 -8.479,-2.105 -0.712,0.003 -1.27,0.277 -1.36,0.727 m 16.809,6.949 c 0.041,0.101 0.064,0.212 0.064,0.328 0,0.473 -0.383,0.858 -0.856,0.858 h -0.866 c -0.059,-10e-4 -0.114,0.014 -0.163,0.04 -0.048,0.025 -0.092,0.063 -0.125,0.111 l -0.434,0.641 c 0.033,-0.048 0.076,-0.086 0.125,-0.111 0.048,-0.026 0.104,-0.041 0.163,-0.04 l 1.141,-10e-4 c 0.059,0 0.115,-0.014 0.163,-0.04 0.049,-0.025 0.092,-0.063 0.125,-0.111 l -0.524,0.767 c -0.033,0.049 -0.077,0.086 -0.126,0.111 -0.048,0.026 -0.104,0.041 -0.162,0.041 L 42.683,43.91 c -0.058,0 -0.114,0.014 -0.162,0.04 -0.049,0.025 -0.093,0.063 -0.126,0.111 l -0.492,0.725 c 0.033,-0.049 0.077,-0.086 0.125,-0.111 0.049,-0.026 0.104,-0.041 0.163,-0.041 l 1.136,10e-4 c 0.059,0 0.115,-0.014 0.163,-0.04 0.049,-0.025 0.092,-0.062 0.125,-0.111 l -0.524,0.767 c -0.033,0.049 -0.077,0.086 -0.126,0.112 -0.048,0.026 -0.104,0.04 -0.162,0.04 H 41.9 c -0.059,0 -0.114,0.015 -0.163,0.04 -0.048,0.026 -0.092,0.063 -0.125,0.112 l -0.607,0.891 c 1.227,0.146 2.217,0.811 2.414,1.727 0.256,1.188 -0.926,2.341 -2.636,2.592 -0.288,0.042 -0.508,0.289 -0.508,0.588 0,0.254 0.16,0.472 0.385,0.556 -0.182,0.079 -0.386,0.123 -0.602,0.123 -0.756,0 -1.37,-0.542 -1.37,-1.211 0,-0.12 0.021,-0.237 0.058,-0.347 -0.848,-0.366 -1.62,-1.015 -2.211,-1.716 0.632,0.168 1.296,0.258 1.981,0.258 -0.003,0.032 -0.005,0.064 -0.005,0.097 0,0.513 0.415,0.928 0.928,0.928 h 0.013 c -0.35,-0.154 -0.52,-0.49 -0.52,-0.712 0,-0.265 0.215,-0.48 0.479,-0.48 0.103,0 0.199,0.033 0.277,0.088 -0.018,0.06 -0.028,0.124 -0.028,0.191 0,0.367 0.297,0.664 0.665,0.664 0.032,0 0.065,-0.002 0.096,-0.007 -0.253,-0.118 -0.429,-0.376 -0.429,-0.674 0,-0.411 0.333,-0.744 0.744,-0.744 0.044,0 0.086,0.003 0.128,0.01 -0.012,0.044 -0.018,0.089 -0.018,0.136 0,0.295 0.239,0.534 0.533,0.534 0.295,0 0.534,-0.239 0.534,-0.534 0,-0.641 -0.712,-0.7 -1.231,-0.551 -1.478,0.426 -2.862,0.617 -4.201,0.43 -1.718,-0.242 -4.532,-1.403 -7.519,-1.306 -0.668,0.021 -1.397,0.132 -2.131,0.333 0.09,-0.099 0.148,-0.167 0.186,-0.225 0.291,-0.453 0.391,-0.928 0.134,-1.522 0.007,0.666 -0.543,1.214 -1.004,1.55 -0.186,0.135 -0.261,0.264 -0.23,0.437 l 0.136,0.768 c -0.01,-0.057 -0.005,-0.114 0.012,-0.165 0.017,-0.053 0.046,-0.102 0.088,-0.143 l 0.287,-0.281 c 0.109,0.778 -0.067,1.502 -0.53,2.173 0.205,0.536 0.233,1.127 0.096,1.682 -0.054,-0.42 -0.26,-0.6 -0.455,-0.722 -0.364,-0.227 -0.424,-0.611 -0.236,-0.868 -0.306,0.156 -0.73,0.726 -0.485,1.058 0.264,0.359 0.987,0.19 1.076,0.806 -0.469,0.149 -0.952,0.044 -1.099,0.004 -0.278,0.319 -0.647,0.477 -1.106,0.474 -0.363,0.329 -0.829,0.466 -1.399,0.409 -0.569,0.057 -1.035,-0.08 -1.398,-0.409 -0.459,0.003 -0.828,-0.155 -1.106,-0.474 -0.148,0.04 -0.63,0.145 -1.1,-0.004 0.089,-0.616 0.812,-0.447 1.076,-0.806 0.245,-0.332 -0.178,-0.902 -0.485,-1.058 0.189,0.257 0.128,0.641 -0.236,0.868 -0.194,0.122 -0.401,0.302 -0.455,0.722 -0.137,-0.555 -0.108,-1.146 0.096,-1.682 -0.463,-0.671 -0.639,-1.395 -0.53,-2.173 l 0.288,0.281 c 0.042,0.041 0.071,0.09 0.088,0.143 0.017,0.051 0.021,0.108 0.011,0.165 l 0.136,-0.768 c 0.031,-0.173 -0.043,-0.302 -0.229,-0.437 -0.462,-0.336 -1.012,-0.884 -1.005,-1.55 -0.256,0.594 -0.152,1.089 0.135,1.522 -0.876,0.473 -1.543,1.25 -1.666,1.392 -0.265,0.308 -0.23,0.701 0.01,1.045 0.463,0.662 0.573,1.368 -0.008,1.851 0.004,0.035 0.006,0.071 0.006,0.107 0,0.439 -0.312,0.805 -0.727,0.888 0.077,-0.12 0.122,-0.263 0.122,-0.416 0,-0.175 -0.058,-0.336 -0.157,-0.466 0.082,-0.107 0.131,-0.242 0.131,-0.388 0,-0.196 -0.088,-0.371 -0.227,-0.488 0.014,0.067 0.021,0.137 0.021,0.209 0,0.452 -0.28,0.83 -0.659,0.934 -0.061,0.328 -0.349,0.577 -0.695,0.577 -0.201,0 -0.381,-0.083 -0.51,-0.217 0.268,-0.02 0.484,-0.231 0.513,-0.497 -0.128,-0.096 -0.231,-0.228 -0.298,-0.384 h 0.017 c 0.463,0 0.838,-0.375 0.838,-0.838 0,-0.052 -0.005,-0.104 -0.014,-0.154 -0.035,0.19 -0.121,0.366 -0.26,0.501 -0.26,0.254 -0.638,0.307 -0.984,0.175 -0.13,0.163 -0.33,0.268 -0.554,0.268 -0.254,0 -0.476,-0.133 -0.601,-0.333 0.256,-0.011 0.481,-0.14 0.622,-0.335 -0.364,-0.466 -0.368,-1.11 0.004,-1.473 0.252,-0.246 0.613,-0.303 0.95,-0.187 0.022,0.007 0.046,0.011 0.071,0.011 0.124,0 0.224,-0.1 0.224,-0.223 0,-0.123 -0.1,-0.223 -0.224,-0.223 -0.054,0 -0.104,0.019 -0.142,0.051 -0.085,0.071 -0.195,0.113 -0.314,0.113 -0.27,0 -0.49,-0.219 -0.49,-0.49 0,-0.021 10e-4,-0.041 0.004,-0.06 -0.046,-0.015 -0.095,-0.023 -0.146,-0.023 -0.132,0 -0.252,0.054 -0.34,0.14 -0.014,-0.053 -0.021,-0.109 -0.021,-0.167 0,-0.345 0.266,-0.628 0.605,-0.654 0.152,-0.378 0.523,-0.644 0.955,-0.644 0.222,0 0.427,0.07 0.595,0.188 0.074,0.051 0.162,0.082 0.258,0.082 0.249,0 0.451,-0.202 0.451,-0.451 0,-0.215 -0.15,-0.394 -0.351,-0.44 l -0.351,-0.077 c -0.057,-0.013 -0.115,-0.01 -0.168,0.005 -0.053,0.014 -0.103,0.041 -0.145,0.081 l 0.803,-0.762 c 0.043,-0.04 0.093,-0.068 0.146,-0.082 0.053,-0.015 0.11,-0.018 0.168,-0.005 l 0.657,0.146 c 0.057,0.013 0.115,0.01 0.167,-0.005 0.053,-0.014 0.104,-0.042 0.146,-0.082 l 0.551,-0.524 c -0.043,0.04 -0.093,0.068 -0.146,0.082 -0.053,0.015 -0.11,0.018 -0.167,0.005 l -0.657,-0.145 c -0.057,-0.013 -0.115,-0.01 -0.167,0.005 -0.053,0.014 -0.104,0.041 -0.146,0.081 l 0.736,-0.697 c 0.042,-0.041 0.093,-0.068 0.145,-0.083 0.053,-0.015 0.111,-0.017 0.168,-0.004 l 0.658,0.144 c 0.058,0.013 0.115,0.01 0.168,-0.005 0.053,-0.014 0.103,-0.042 0.146,-0.082 l 0.551,-0.524 c -0.043,0.04 -0.093,0.068 -0.146,0.082 -0.053,0.015 -0.11,0.017 -0.168,0.005 L 16.89,43.589 c -0.058,-0.013 -0.115,-0.01 -0.168,0.005 -0.053,0.014 -0.103,0.041 -0.146,0.081 l 0.736,-0.697 c 0.043,-0.041 0.093,-0.068 0.146,-0.082 0.053,-0.015 0.11,-0.018 0.168,-0.005 l 0.795,0.174 c -0.772,-0.436 -1.594,-0.93 -2.465,-1.481 -0.515,-0.325 -1.078,-0.386 -1.725,-0.138 -0.347,0.133 -0.725,0.154 -0.963,0.114 -0.31,-0.053 -0.573,-0.241 -0.726,-0.502 0.12,0.048 0.251,0.075 0.389,0.075 0.289,0 0.55,-0.117 0.74,-0.305 -0.301,0.126 -0.675,0.139 -1.038,0.006 -0.65,-0.236 -1.029,-0.849 -0.881,-1.398 -0.242,-0.093 -0.413,-0.328 -0.413,-0.602 0,-0.181 0.074,-0.345 0.194,-0.462 0.064,0.288 0.316,0.505 0.621,0.516 0.127,-0.084 0.275,-0.143 0.434,-0.175 0.048,0.083 0.109,0.158 0.179,0.221 -0.007,0.052 -0.011,0.105 -0.011,0.159 0,0.593 0.48,1.074 1.073,1.074 0.049,0 0.098,-0.003 0.145,-0.01 -0.471,-0.113 -0.822,-0.537 -0.822,-1.044 0,-0.064 0.006,-0.127 0.017,-0.188 -0.254,-0.098 -0.433,-0.343 -0.433,-0.631 0,-0.165 0.059,-0.316 0.158,-0.434 0.182,0.356 0.537,0.608 0.954,0.648 0.157,-0.046 0.323,-0.071 0.495,-0.071 0.107,0 0.212,0.01 0.314,0.028 -0.092,0.135 -0.146,0.297 -0.146,0.472 0,0.461 0.374,0.834 0.835,0.834 0.04,0 0.079,-0.003 0.118,-0.008 -0.441,-0.187 -0.711,-0.57 -0.618,-0.919 0.066,-0.247 0.299,-0.418 0.6,-0.475 -0.004,-0.185 -0.055,-0.359 -0.142,-0.51 0.387,0.028 0.718,0.261 0.883,0.592 0.456,0.183 0.737,0.574 0.643,0.929 -0.034,0.127 -0.112,0.234 -0.22,0.315 -10e-4,0.012 -0.002,0.025 -0.002,0.037 0,0.244 0.199,0.443 0.443,0.443 0.245,0 0.443,-0.199 0.443,-0.443 0,-0.116 -0.044,-0.221 -0.117,-0.3 h 0.927 c 0.058,0 0.114,0.015 0.162,0.041 0.049,0.025 0.092,0.063 0.125,0.112 l 0.595,0.882 c 0.022,0.033 0.052,0.058 0.085,0.076 0.033,0.017 0.071,0.028 0.111,0.028 h 0.728 c -0.04,0 -0.078,-0.011 -0.111,-0.028 C 19.966,40.525 19.936,40.5 19.914,40.467 L 19.317,39.584 C 19.284,39.536 19.241,39.498 19.192,39.473 19.144,39.447 19.089,39.432 19.03,39.432 h 1.108 c 0.059,0 0.114,0.015 0.162,0.041 0.049,0.025 0.093,0.063 0.125,0.112 l 0.668,0.985 c -0.461,0.252 -0.65,0.693 -0.65,1.299 0,0.377 0.212,0.807 0.244,1.084 l 0.013,0.11 c 0.007,0.059 -10e-4,0.115 -0.021,0.166 -0.016,0.042 -0.048,0.102 -0.083,0.143 l 0.57,-0.584 c 0.045,-0.038 0.077,-0.086 0.096,-0.137 0.021,-0.051 0.029,-0.108 0.022,-0.167 l -0.017,-0.133 c -0.027,-0.232 -0.319,-0.732 0.223,-1.19 0.027,-0.023 0.094,-0.071 0.158,-0.111 l 0.385,-0.242 v 1.421 h 0.539 v -1.581 c 0.001,-0.059 0.018,-0.114 0.045,-0.162 0.027,-0.047 0.065,-0.09 0.115,-0.121 l 0.527,-0.335 c 0.05,-0.031 0.105,-0.049 0.159,-0.053 0.055,-0.004 0.112,0.004 0.165,0.027 l 0.971,0.422 c -0.054,-0.024 -0.111,-0.032 -0.165,-0.027 -0.055,0.004 -0.11,0.021 -0.159,0.052 l -1.115,0.71 c 0.542,0.458 0.249,0.958 0.222,1.19 l -0.016,0.133 c -0.007,0.059 10e-4,0.116 0.021,0.167 0.02,0.051 0.052,0.099 0.096,0.137 l 0.57,0.584 c -0.035,-0.041 -0.066,-0.101 -0.082,-0.143 -0.02,-0.051 -0.028,-0.107 -0.021,-0.166 l 0.012,-0.11 c 0.046,-0.395 0.446,-1.111 0.113,-1.511 l 1.019,-0.646 c 0.05,-0.031 0.105,-0.049 0.159,-0.053 0.055,-0.004 0.112,0.004 0.166,0.028 l 1.015,0.441 c -0.054,-0.023 -0.11,-0.031 -0.164,-0.027 -0.055,0.004 -0.11,0.021 -0.16,0.053 l -1.102,0.701 c 0.24,0.491 0.038,1.273 -0.195,1.725 l -0.035,0.067 c -0.026,0.052 -0.038,0.109 -0.036,0.164 0,0.055 0.014,0.11 0.043,0.161 l 0.378,0.682 c -0.028,-0.05 -0.042,-0.106 -0.042,-0.16 -0.002,-0.055 0.01,-0.111 0.036,-0.163 l 0.139,-0.271 c 0.073,-0.133 0.114,-0.214 0.178,-0.371 0.62,0.559 0.758,1.098 0.363,1.557 l -0.118,0.139 c -0.038,0.044 -0.063,0.096 -0.075,0.149 -0.013,0.054 -0.013,0.111 0.003,0.168 l 0.202,0.753 c -0.015,-0.056 -0.015,-0.113 -0.003,-0.166 0.012,-0.053 0.037,-0.105 0.076,-0.149 l 0.388,-0.453 c 0.754,-0.852 0.298,-1.95 -0.602,-2.788 0.05,-0.16 0.093,-0.461 0.057,-0.624 l 1.195,-0.758 c 0.05,-0.032 0.105,-0.049 0.16,-0.053 0.054,-0.005 0.111,0.004 0.165,0.027 l 0.864,0.376 C 28.055,41.93 28,41.918 27.944,41.918 c -0.223,0 -0.403,0.18 -0.403,0.402 0,0.18 0.117,0.335 0.281,0.384 3.299,1.004 6.336,3.594 8.33,3.588 0.969,-0.004 1.755,-0.59 1.755,-1.317 0,-0.117 -0.021,-0.231 -0.059,-0.34 -0.425,-1.194 0.194,-2.334 1.829,-2.774 0.26,-0.07 0.452,-0.308 0.452,-0.59 0,-0.055 -0.008,-0.109 -0.021,-0.159 0.037,-0.004 0.075,-0.005 0.114,-0.005 0.45,0 0.848,0.224 1.089,0.566 0.281,0.002 0.587,0.019 0.901,0.052 0.038,-0.076 0.068,-0.163 0.086,-0.257 0.067,-0.344 -0.052,-0.654 -0.263,-0.722 -0.375,-0.122 -0.835,0.024 -1.19,0.021 -0.672,-0.007 -1.215,-0.553 -1.215,-1.226 0,-0.053 0.003,-0.105 0.01,-0.157 -0.211,-0.131 -0.351,-0.365 -0.351,-0.631 0,-0.133 0.035,-0.258 0.096,-0.366 0.207,0.241 0.476,0.428 0.783,0.536 0.026,0.59 0.512,1.06 1.108,1.06 0.091,0 0.181,-0.011 0.265,-0.032 -0.604,-0.076 -1.072,-0.592 -1.072,-1.217 0,-0.045 0.003,-0.09 0.008,-0.135 -0.075,-0.09 -0.12,-0.207 -0.12,-0.333 0,-0.161 0.072,-0.305 0.185,-0.402 0.114,0.25 0.389,0.485 0.745,0.605 0.239,0.08 0.474,0.096 0.67,0.056 -0.031,0.094 -0.047,0.194 -0.047,0.297 0,0.534 0.432,0.966 0.965,0.966 0.049,0 0.098,-0.004 0.145,-0.011 -0.372,-0.051 -0.658,-0.369 -0.658,-0.754 0,-0.256 0.126,-0.482 0.319,-0.621 0,-0.013 -10e-4,-0.027 -10e-4,-0.041 0,-0.21 0.096,-0.396 0.247,-0.519 0.067,0.35 0.374,0.614 0.744,0.614 0.316,0 0.577,0.04 0.772,0.104 0.33,0.108 0.571,0.413 0.571,0.778 0,0.253 -0.115,0.479 -0.296,0.628 0.089,0.41 0.073,1.083 -0.066,1.643 0.028,0.004 0.057,0.006 0.087,0.006 0.23,0 0.433,-0.118 0.551,-0.298 m -25.936,2.827 0.138,0.271 c 0.027,0.052 0.038,0.108 0.037,0.163 -0.001,0.054 -0.015,0.11 -0.043,0.16 l 0.379,-0.682 c 0.028,-0.051 0.042,-0.106 0.043,-0.161 0.002,-0.055 -0.01,-0.112 -0.037,-0.164 l -0.034,-0.067 c -0.233,-0.452 -0.45,-1.299 -0.209,-1.79 -0.562,0.209 -0.747,0.701 -0.687,1.109 -1.057,1.003 -1.324,2.02 -0.569,2.872 l 0.388,0.453 c 0.039,0.044 0.064,0.096 0.075,0.149 0.013,0.053 0.013,0.11 -0.002,0.166 l 0.202,-0.753 c 0.015,-0.057 0.016,-0.114 0.003,-0.168 -0.012,-0.053 -0.037,-0.105 -0.075,-0.149 l -0.118,-0.138 c -0.395,-0.46 -0.289,-1.083 0.33,-1.642 0.064,0.157 0.106,0.238 0.179,0.371 m 1.408,5.442 h -0.249 c -0.27,0 -0.509,0.362 -0.509,0.687 0.148,-0.165 0.304,-0.236 0.516,-0.236 h 1.142 c 0.102,0 0.204,-0.079 0.248,-0.21 0.032,-0.097 0.014,-0.241 -0.004,-0.382 -0.055,0.104 -0.124,0.141 -0.213,0.141 h -0.26 c 0.062,-0.075 0.099,-0.171 0.099,-0.277 0,-0.24 -0.195,-0.435 -0.435,-0.435 -0.24,0 -0.435,0.195 -0.435,0.435 0,0.106 0.037,0.202 0.1,0.277 m 0.287,2.062 0.474,-0.603 c 0.106,-0.128 0.139,-0.214 0.264,-0.231 h -0.398 c -0.199,0 -0.336,0.081 -0.452,0.215 l -0.455,0.594 c -0.075,0.094 -0.134,0.16 -0.232,0.203 h 0.45 c 0.135,0 0.255,-0.058 0.349,-0.178 m 1.319,0.147 0.582,-0.818 c 0.092,-0.134 0.179,-0.209 0.304,-0.26 h -0.533 c -0.205,0 -0.328,0.094 -0.418,0.242 l -0.458,0.702 c -0.175,0.263 -0.244,0.328 -0.445,0.4 h 0.495 c 0.195,0 0.377,-0.127 0.473,-0.266 m 2.081,-0.981 h -0.398 c -0.199,0 -0.336,0.081 -0.452,0.215 l -0.455,0.594 c -0.075,0.094 -0.134,0.16 -0.232,0.203 h 0.45 c 0.135,0 0.255,-0.058 0.349,-0.178 l 0.474,-0.603 c 0.106,-0.128 0.139,-0.214 0.264,-0.231 M 24.6,50.273 c 0,-0.325 -0.238,-0.687 -0.509,-0.687 h -0.248 c 0.062,-0.075 0.1,-0.171 0.1,-0.277 0,-0.24 -0.195,-0.435 -0.435,-0.435 -0.241,0 -0.436,0.195 -0.436,0.435 0,0.106 0.038,0.202 0.1,0.277 h -0.26 c -0.089,0 -0.158,-0.037 -0.213,-0.141 -0.018,0.141 -0.036,0.285 -0.004,0.382 0.044,0.131 0.146,0.21 0.248,0.21 h 1.142 c 0.211,0 0.368,0.071 0.515,0.236 m -0.351,-2.471 c -0.079,-0.021 -0.122,-0.067 -0.131,-0.15 -0.047,-0.446 -0.228,-0.626 -0.517,-0.727 -0.004,-0.45 -0.066,-0.79 -0.188,-1.212 0.343,-0.717 0.08,-1.218 -0.198,-1.325 -0.265,-0.103 -0.607,0.035 -0.91,0.035 -0.303,0 -0.65,-0.138 -0.915,-0.035 -0.279,0.107 -0.541,0.608 -0.199,1.325 -0.121,0.422 -0.184,0.762 -0.187,1.212 -0.289,0.101 -0.471,0.281 -0.518,0.727 -0.009,0.083 -0.052,0.129 -0.13,0.15 -1.14,0.313 -1.248,1.729 -0.671,2.13 -0.051,-0.634 -0.106,-1.529 1.19,-1.648 -0.021,-0.744 0.301,-0.943 0.632,-0.943 0.271,-10e-4 0.426,0.086 0.494,0.122 0.241,0.128 0.075,0.324 0.013,0.382 -0.166,0.155 -0.25,0.375 -0.21,0.594 0.007,0.04 0.022,0.06 0.059,0.06 h 0.439 0.439 c 0.037,0 0.053,-0.02 0.06,-0.06 0.039,-0.219 -0.045,-0.439 -0.21,-0.594 -0.062,-0.058 -0.228,-0.254 0.013,-0.382 0.067,-0.036 0.223,-0.123 0.494,-0.122 0.331,0 0.653,0.199 0.632,0.943 1.296,0.119 1.241,1.014 1.19,1.648 0.577,-0.401 0.468,-1.817 -0.671,-2.13 m -1.148,-2.729 c 0.034,0.379 -0.397,0.514 -0.799,0.514 -0.402,0 -0.832,-0.135 -0.799,-0.514 0.041,-0.462 0.473,-0.242 0.799,-0.244 0.326,0.002 0.758,-0.218 0.799,0.244 m -0.133,0.899 c 0.062,0.334 0.088,0.658 0.076,0.97 l -0.299,-0.35 c -0.059,0.139 -0.098,0.225 -0.138,0.294 -0.033,0.057 -0.061,0.096 -0.1,0.103 -0.02,-0.011 -0.05,-0.027 -0.083,-0.034 -0.038,-0.009 -0.09,-0.006 -0.122,-0.006 -0.031,0 -0.083,-0.003 -0.122,0.006 -0.032,0.007 -0.062,0.023 -0.082,0.034 -0.04,-0.007 -0.067,-0.046 -0.1,-0.103 -0.04,-0.069 -0.079,-0.155 -0.138,-0.294 l -0.3,0.35 c -0.011,-0.312 0.014,-0.636 0.077,-0.97 0.221,0.048 0.449,0.066 0.665,0.066 0.216,0 0.444,-0.018 0.666,-0.066 m 5.44,9.331 c 0.048,0 0.095,-0.003 0.141,-0.008 -0.468,-0.135 -0.846,-0.484 -1.021,-0.934 -0.291,-0.096 -0.501,-0.371 -0.501,-0.694 0,-0.151 0.046,-0.291 0.124,-0.407 0.253,0.282 0.585,0.493 0.962,0.595 0.108,0.542 0.559,0.96 1.117,1.019 -0.487,-0.204 -0.829,-0.686 -0.829,-1.247 0,-0.199 0.043,-0.387 0.12,-0.557 0.086,0.309 0.369,0.536 0.705,0.536 0.085,0 0.166,-0.014 0.241,-0.041 0.104,-0.038 0.217,-0.059 0.334,-0.059 0.541,0 0.979,0.44 0.979,0.982 0,0.108 -0.017,0.212 -0.049,0.309 0.257,-0.074 0.446,-0.312 0.446,-0.594 0,-0.129 -0.04,-0.248 -0.107,-0.348 0.072,-0.013 0.146,-0.019 0.222,-0.019 0.637,0 1.163,0.479 1.236,1.097 0.32,0.173 0.601,0.407 0.843,0.699 l 0.17,-0.829 C 33.553,54.745 33.55,54.688 33.534,54.635 33.519,54.583 33.491,54.533 33.45,54.49 l 0.703,0.723 c 0.041,0.042 0.069,0.092 0.083,0.145 0.016,0.053 0.019,0.11 0.007,0.167 l -0.207,1.012 c -0.012,0.057 -0.009,0.115 0.007,0.167 0.015,0.053 0.043,0.103 0.084,0.145 l 0.553,0.564 C 34.639,57.37 34.611,57.32 34.596,57.268 34.581,57.215 34.578,57.158 34.59,57.1 l 0.207,-1.013 c 0.012,-0.057 0.009,-0.114 -0.006,-0.167 -0.015,-0.052 -0.042,-0.101 -0.082,-0.143 l 0.627,0.652 c 0.04,0.042 0.068,0.092 0.083,0.145 0.016,0.052 0.019,0.11 0.007,0.167 l -0.207,1.01 c -0.012,0.057 -0.009,0.115 0.007,0.167 0.015,0.053 0.043,0.103 0.084,0.145 l 0.553,0.564 c -0.041,-0.042 -0.069,-0.092 -0.084,-0.145 -0.015,-0.053 -0.018,-0.11 -0.006,-0.167 l 0.208,-1.013 c 0.012,-0.057 0.008,-0.115 -0.007,-0.167 -0.015,-0.052 -0.042,-0.101 -0.082,-0.143 l 0.627,0.651 c 0.041,0.042 0.068,0.092 0.083,0.145 0.016,0.053 0.019,0.11 0.007,0.168 l -0.101,0.494 c -0.106,0.559 0.471,1.202 0.929,1.267 0.055,0.106 0.085,0.221 0.085,0.34 0,0.567 -0.675,1.027 -1.509,1.027 -0.407,0 -0.777,-0.11 -1.049,-0.289 0.109,-0.323 0.132,-0.651 -0.937,-0.803 -0.848,-0.121 -1.594,-0.285 -2.161,-0.766 -0.874,-0.741 -0.803,-1.732 -1.3,-2.107 0.221,-0.054 0.502,-0.054 0.803,0.011 0.19,0.041 0.366,0.104 0.521,0.181 -0.093,-0.178 -0.306,-0.347 -0.586,-0.467 -0.092,-0.35 -0.403,-0.684 -0.823,-0.84 -0.265,-0.098 -0.528,-0.108 -0.746,-0.045 l -1.023,0.296 c -0.126,0.036 -0.257,0.055 -0.394,0.055 -0.754,0 -1.376,-0.581 -1.468,-1.332 -0.356,-0.05 -0.629,-0.356 -0.629,-0.725 0,-0.136 0.037,-0.263 0.101,-0.371 0.245,0.249 0.556,0.434 0.904,0.528 0.146,0.515 0.62,0.893 1.182,0.893 m 0.073,-5.77 c -0.018,0.089 -0.016,0.181 0.003,0.272 0.038,0.176 0.194,0.309 0.382,0.309 0.216,0 0.39,-0.175 0.39,-0.391 0,-0.103 -0.04,-0.197 -0.105,-0.267 0.073,-0.007 0.148,-0.011 0.226,-0.011 0.201,0 0.392,0.025 0.56,0.07 0.275,0.074 0.477,0.325 0.477,0.623 0,0.356 -0.289,0.644 -0.645,0.644 -0.019,0 -0.039,-10e-4 -0.058,-0.002 0.09,0.038 0.189,0.059 0.293,0.059 0.413,0 0.749,-0.335 0.749,-0.749 0,-0.021 -0.001,-0.043 -0.003,-0.064 1.116,0.025 2.374,1.043 2.649,1.431 -0.35,-0.08 -0.729,-0.124 -1.125,-0.124 -0.449,0 -0.878,0.055 -1.266,0.158 -0.549,0.145 -1.089,0.226 -1.504,0.226 -1.369,0 -2.479,-0.893 -2.479,-1.995 0,-0.91 0.752,-1.705 1.794,-1.918 2.371,-0.485 5.16,0.924 7.516,1.412 0.589,0.576 1.27,1.057 2.019,1.42 -0.022,0.087 -0.034,0.177 -0.034,0.269 v 0.006 c -3.126,-0.514 -5.939,-2.118 -8.479,-2.105 -0.712,0.003 -1.27,0.276 -1.36,0.727 m 16.809,6.949 c 0.041,0.101 0.064,0.212 0.064,0.328 0,0.473 -0.383,0.858 -0.856,0.858 h -0.866 c -0.059,-10e-4 -0.114,0.014 -0.163,0.04 -0.048,0.025 -0.092,0.063 -0.125,0.111 L 42.91,58.46 c 0.033,-0.049 0.076,-0.086 0.125,-0.111 0.048,-0.026 0.104,-0.041 0.163,-0.04 l 1.141,-10e-4 c 0.059,0 0.115,-0.014 0.163,-0.04 0.049,-0.025 0.092,-0.063 0.125,-0.111 l -0.524,0.767 c -0.033,0.049 -0.077,0.086 -0.126,0.111 -0.048,0.026 -0.104,0.041 -0.162,0.041 l -1.132,-10e-4 c -0.058,0 -0.114,0.014 -0.162,0.04 -0.049,0.026 -0.093,0.063 -0.126,0.111 l -0.492,0.725 c 0.033,-0.049 0.077,-0.086 0.125,-0.111 0.049,-0.026 0.104,-0.041 0.163,-0.041 l 1.136,10e-4 c 0.059,0 0.115,-0.014 0.163,-0.04 0.049,-0.025 0.092,-0.063 0.125,-0.111 l -0.524,0.768 c -0.033,0.048 -0.077,0.085 -0.126,0.111 -0.048,0.025 -0.104,0.04 -0.162,0.04 H 41.9 c -0.059,0 -0.114,0.015 -0.163,0.04 -0.048,0.026 -0.092,0.063 -0.125,0.112 l -0.607,0.89 c 1.227,0.147 2.217,0.812 2.414,1.728 0.256,1.188 -0.926,2.341 -2.636,2.592 -0.288,0.042 -0.508,0.289 -0.508,0.588 0,0.254 0.16,0.472 0.385,0.556 -0.182,0.079 -0.386,0.123 -0.602,0.123 -0.756,0 -1.37,-0.542 -1.37,-1.211 0,-0.12 0.021,-0.237 0.058,-0.347 -0.848,-0.366 -1.62,-1.015 -2.211,-1.716 0.632,0.168 1.296,0.258 1.981,0.258 -0.003,0.032 -0.005,0.064 -0.005,0.097 0,0.512 0.415,0.928 0.928,0.928 h 0.013 c -0.35,-0.154 -0.52,-0.49 -0.52,-0.712 0,-0.265 0.215,-0.48 0.479,-0.48 0.103,0 0.199,0.033 0.277,0.088 -0.018,0.06 -0.028,0.124 -0.028,0.191 0,0.367 0.297,0.664 0.665,0.664 0.032,0 0.065,-0.002 0.096,-0.007 -0.253,-0.118 -0.429,-0.376 -0.429,-0.674 0,-0.411 0.333,-0.744 0.744,-0.744 0.044,0 0.086,0.003 0.128,0.01 -0.012,0.044 -0.018,0.089 -0.018,0.136 0,0.295 0.239,0.533 0.533,0.533 0.295,0 0.534,-0.238 0.534,-0.533 0,-0.641 -0.712,-0.7 -1.231,-0.551 -1.478,0.426 -2.862,0.617 -4.201,0.429 -1.718,-0.241 -4.532,-1.402 -7.519,-1.305 -0.668,0.021 -1.397,0.132 -2.131,0.333 0.09,-0.099 0.148,-0.167 0.186,-0.225 0.291,-0.453 0.391,-0.928 0.134,-1.522 0.007,0.666 -0.543,1.214 -1.004,1.55 -0.186,0.135 -0.261,0.264 -0.23,0.437 l 0.136,0.768 c -0.01,-0.057 -0.005,-0.114 0.012,-0.166 0.017,-0.052 0.046,-0.101 0.088,-0.142 l 0.287,-0.281 c 0.109,0.777 -0.067,1.502 -0.53,2.173 0.205,0.536 0.233,1.127 0.096,1.682 -0.054,-0.42 -0.26,-0.6 -0.455,-0.722 -0.364,-0.228 -0.424,-0.611 -0.236,-0.868 -0.306,0.156 -0.73,0.725 -0.485,1.058 0.264,0.359 0.987,0.19 1.076,0.806 -0.469,0.149 -0.952,0.044 -1.099,0.004 -0.278,0.319 -0.647,0.477 -1.106,0.474 -0.363,0.329 -0.829,0.466 -1.399,0.409 -0.569,0.057 -1.035,-0.08 -1.398,-0.409 -0.459,0.003 -0.828,-0.155 -1.106,-0.474 -0.148,0.04 -0.63,0.145 -1.1,-0.004 0.089,-0.616 0.812,-0.447 1.076,-0.806 0.245,-0.333 -0.178,-0.902 -0.485,-1.058 0.189,0.257 0.128,0.64 -0.236,0.868 -0.194,0.122 -0.401,0.302 -0.455,0.722 -0.137,-0.555 -0.108,-1.146 0.096,-1.682 -0.463,-0.671 -0.639,-1.396 -0.53,-2.173 l 0.288,0.281 c 0.042,0.041 0.071,0.09 0.088,0.142 0.017,0.052 0.021,0.109 0.011,0.166 l 0.136,-0.768 c 0.031,-0.173 -0.043,-0.302 -0.229,-0.437 -0.462,-0.336 -1.012,-0.884 -1.005,-1.55 -0.256,0.594 -0.152,1.089 0.135,1.522 -0.876,0.473 -1.543,1.25 -1.666,1.392 -0.265,0.308 -0.23,0.701 0.01,1.045 0.463,0.662 0.573,1.368 -0.008,1.851 0.004,0.035 0.006,0.071 0.006,0.107 0,0.439 -0.312,0.805 -0.727,0.887 0.077,-0.119 0.122,-0.262 0.122,-0.415 0,-0.175 -0.058,-0.336 -0.157,-0.466 0.082,-0.107 0.131,-0.242 0.131,-0.388 0,-0.196 -0.088,-0.371 -0.227,-0.488 0.014,0.067 0.021,0.137 0.021,0.209 0,0.452 -0.28,0.83 -0.659,0.934 -0.061,0.328 -0.349,0.577 -0.695,0.577 -0.201,0 -0.381,-0.083 -0.51,-0.217 0.268,-0.021 0.484,-0.231 0.513,-0.497 -0.128,-0.096 -0.231,-0.229 -0.298,-0.384 h 0.017 c 0.463,0 0.838,-0.375 0.838,-0.838 0,-0.052 -0.005,-0.104 -0.014,-0.154 -0.035,0.19 -0.121,0.366 -0.26,0.501 -0.26,0.254 -0.638,0.307 -0.984,0.175 -0.13,0.163 -0.33,0.268 -0.554,0.268 -0.254,0 -0.476,-0.133 -0.601,-0.333 0.256,-0.011 0.481,-0.14 0.622,-0.335 -0.364,-0.466 -0.368,-1.11 0.004,-1.473 0.252,-0.246 0.613,-0.303 0.95,-0.187 0.022,0.007 0.046,0.011 0.071,0.011 0.124,0 0.224,-0.1 0.224,-0.223 0,-0.123 -0.1,-0.223 -0.224,-0.223 -0.054,0 -0.104,0.019 -0.142,0.051 -0.085,0.071 -0.195,0.113 -0.314,0.113 -0.27,0 -0.49,-0.219 -0.49,-0.49 0,-0.021 10e-4,-0.041 0.004,-0.061 -0.046,-0.014 -0.095,-0.022 -0.146,-0.022 -0.132,0 -0.252,0.054 -0.34,0.14 -0.014,-0.053 -0.021,-0.109 -0.021,-0.167 0,-0.345 0.266,-0.628 0.605,-0.654 0.152,-0.378 0.523,-0.644 0.955,-0.644 0.222,0 0.427,0.07 0.595,0.188 0.074,0.051 0.162,0.082 0.258,0.082 0.249,0 0.451,-0.202 0.451,-0.451 0,-0.215 -0.15,-0.394 -0.351,-0.44 l -0.351,-0.077 c -0.057,-0.013 -0.115,-0.01 -0.168,0.005 -0.053,0.014 -0.103,0.041 -0.145,0.081 l 0.803,-0.762 c 0.043,-0.04 0.093,-0.068 0.146,-0.082 0.053,-0.015 0.11,-0.018 0.168,-0.005 l 0.657,0.146 c 0.057,0.013 0.115,0.01 0.167,-0.005 0.053,-0.014 0.104,-0.042 0.146,-0.082 l 0.551,-0.524 c -0.043,0.04 -0.093,0.068 -0.146,0.082 -0.053,0.015 -0.11,0.018 -0.167,0.005 l -0.657,-0.145 c -0.057,-0.013 -0.115,-0.01 -0.167,0.005 -0.053,0.014 -0.104,0.041 -0.146,0.081 l 0.736,-0.698 c 0.042,-0.04 0.093,-0.067 0.145,-0.082 0.053,-0.015 0.111,-0.017 0.168,-0.004 l 0.658,0.144 c 0.058,0.012 0.115,0.01 0.168,-0.005 0.053,-0.014 0.103,-0.042 0.146,-0.082 l 0.551,-0.524 c -0.043,0.04 -0.093,0.067 -0.146,0.082 -0.053,0.015 -0.11,0.017 -0.168,0.005 L 16.89,58.754 c -0.058,-0.013 -0.115,-0.01 -0.168,0.005 -0.053,0.014 -0.103,0.041 -0.146,0.082 l 0.736,-0.698 c 0.043,-0.041 0.093,-0.068 0.146,-0.082 0.053,-0.015 0.11,-0.018 0.168,-0.005 l 0.795,0.174 c -0.772,-0.436 -1.594,-0.93 -2.465,-1.481 -0.515,-0.325 -1.078,-0.386 -1.725,-0.138 -0.347,0.133 -0.725,0.155 -0.963,0.114 -0.31,-0.053 -0.573,-0.241 -0.726,-0.502 0.12,0.048 0.251,0.075 0.389,0.075 0.289,0 0.55,-0.117 0.74,-0.305 -0.301,0.126 -0.675,0.139 -1.038,0.006 -0.65,-0.236 -1.029,-0.849 -0.881,-1.398 -0.242,-0.093 -0.413,-0.328 -0.413,-0.602 0,-0.181 0.074,-0.345 0.194,-0.462 0.064,0.288 0.316,0.505 0.621,0.516 0.127,-0.084 0.275,-0.143 0.434,-0.175 0.048,0.083 0.109,0.157 0.179,0.221 -0.007,0.052 -0.011,0.105 -0.011,0.159 0,0.593 0.48,1.074 1.073,1.074 0.049,0 0.098,-0.003 0.145,-0.01 -0.471,-0.113 -0.822,-0.537 -0.822,-1.044 0,-0.064 0.006,-0.127 0.017,-0.188 -0.254,-0.098 -0.433,-0.343 -0.433,-0.631 0,-0.165 0.059,-0.316 0.158,-0.434 0.182,0.356 0.537,0.608 0.954,0.648 0.157,-0.046 0.323,-0.071 0.495,-0.071 0.107,0 0.212,0.01 0.314,0.028 -0.092,0.134 -0.146,0.297 -0.146,0.472 0,0.461 0.374,0.834 0.835,0.834 0.04,0 0.079,-0.002 0.118,-0.008 -0.441,-0.187 -0.711,-0.57 -0.618,-0.919 0.066,-0.247 0.299,-0.418 0.6,-0.475 -0.004,-0.185 -0.055,-0.359 -0.142,-0.51 0.387,0.028 0.718,0.261 0.883,0.592 0.456,0.183 0.737,0.574 0.643,0.929 -0.034,0.127 -0.112,0.234 -0.22,0.315 -10e-4,0.012 -0.002,0.025 -0.002,0.037 0,0.244 0.199,0.443 0.443,0.443 0.245,0 0.443,-0.199 0.443,-0.443 0,-0.116 -0.044,-0.221 -0.117,-0.3 h 0.927 c 0.058,0 0.114,0.015 0.162,0.041 0.049,0.025 0.092,0.063 0.125,0.112 l 0.595,0.882 c 0.022,0.033 0.052,0.058 0.085,0.076 0.033,0.017 0.071,0.028 0.111,0.028 h 0.728 c -0.04,0 -0.078,-0.011 -0.111,-0.028 -0.033,-0.018 -0.063,-0.043 -0.085,-0.076 L 19.317,54.75 C 19.284,54.701 19.241,54.663 19.192,54.638 19.144,54.612 19.089,54.597 19.03,54.597 h 1.108 c 0.059,0 0.114,0.015 0.162,0.041 0.049,0.025 0.093,0.063 0.125,0.112 l 0.668,0.985 c -0.461,0.252 -0.65,0.693 -0.65,1.299 0,0.377 0.212,0.807 0.244,1.084 l 0.013,0.11 c 0.007,0.058 -10e-4,0.115 -0.021,0.166 -0.016,0.042 -0.048,0.102 -0.083,0.143 l 0.57,-0.584 c 0.045,-0.038 0.077,-0.086 0.096,-0.137 0.021,-0.051 0.029,-0.108 0.022,-0.166 l -0.017,-0.134 c -0.027,-0.232 -0.319,-0.732 0.223,-1.19 0.027,-0.023 0.094,-0.071 0.158,-0.111 l 0.385,-0.242 v 1.421 h 0.539 v -1.581 c 0.001,-0.059 0.018,-0.114 0.045,-0.162 0.027,-0.047 0.065,-0.09 0.115,-0.121 l 0.527,-0.335 c 0.05,-0.032 0.105,-0.049 0.159,-0.053 0.055,-0.004 0.112,0.004 0.165,0.027 l 0.971,0.422 c -0.054,-0.024 -0.111,-0.032 -0.165,-0.027 -0.055,0.004 -0.11,0.021 -0.159,0.052 l -1.115,0.71 c 0.542,0.458 0.249,0.958 0.222,1.19 l -0.016,0.134 c -0.007,0.058 10e-4,0.115 0.021,0.166 0.02,0.051 0.052,0.099 0.096,0.137 l 0.57,0.584 c -0.035,-0.041 -0.066,-0.101 -0.082,-0.143 -0.02,-0.051 -0.028,-0.108 -0.021,-0.166 l 0.012,-0.11 c 0.046,-0.395 0.446,-1.111 0.113,-1.51 l 1.019,-0.647 c 0.05,-0.031 0.105,-0.049 0.159,-0.053 0.055,-0.004 0.112,0.004 0.166,0.028 l 1.015,0.441 c -0.054,-0.023 -0.11,-0.031 -0.164,-0.027 -0.055,0.004 -0.11,0.021 -0.16,0.053 l -1.102,0.701 c 0.24,0.491 0.038,1.273 -0.195,1.725 l -0.035,0.067 c -0.026,0.052 -0.038,0.109 -0.036,0.164 0,0.054 0.014,0.11 0.043,0.161 l 0.378,0.682 c -0.028,-0.05 -0.042,-0.106 -0.042,-0.16 -0.002,-0.055 0.01,-0.111 0.036,-0.163 l 0.139,-0.271 c 0.073,-0.133 0.114,-0.214 0.178,-0.371 0.62,0.559 0.758,1.098 0.363,1.557 l -0.118,0.139 c -0.038,0.044 -0.063,0.096 -0.075,0.149 -0.013,0.054 -0.013,0.111 0.003,0.168 l 0.202,0.753 c -0.015,-0.056 -0.015,-0.113 -0.003,-0.166 0.012,-0.053 0.037,-0.105 0.076,-0.15 l 0.388,-0.452 c 0.754,-0.852 0.298,-1.95 -0.602,-2.787 0.05,-0.161 0.093,-0.462 0.057,-0.625 l 1.195,-0.758 c 0.05,-0.032 0.105,-0.049 0.16,-0.053 0.054,-0.005 0.111,0.004 0.165,0.027 l 0.864,0.376 C 28.055,57.095 28,57.083 27.944,57.083 c -0.223,0 -0.403,0.18 -0.403,0.402 0,0.18 0.117,0.335 0.281,0.384 3.299,1.003 6.336,3.594 8.33,3.587 0.969,-0.003 1.755,-0.589 1.755,-1.316 0,-0.117 -0.021,-0.231 -0.059,-0.34 -0.425,-1.194 0.194,-2.334 1.829,-2.774 0.26,-0.07 0.452,-0.308 0.452,-0.59 0,-0.055 -0.008,-0.109 -0.021,-0.159 0.037,-0.004 0.075,-0.005 0.114,-0.005 0.45,0 0.848,0.223 1.089,0.566 0.281,0.002 0.587,0.019 0.901,0.052 0.038,-0.076 0.068,-0.163 0.086,-0.257 0.067,-0.344 -0.052,-0.654 -0.263,-0.722 -0.375,-0.122 -0.835,0.024 -1.19,0.02 -0.672,-0.006 -1.215,-0.552 -1.215,-1.226 0,-0.052 0.003,-0.104 0.01,-0.156 -0.211,-0.131 -0.351,-0.365 -0.351,-0.631 0,-0.133 0.035,-0.258 0.096,-0.366 0.207,0.241 0.476,0.428 0.783,0.536 0.026,0.59 0.512,1.06 1.108,1.06 0.091,0 0.181,-0.011 0.265,-0.032 -0.604,-0.076 -1.072,-0.592 -1.072,-1.217 0,-0.045 0.003,-0.09 0.008,-0.135 -0.075,-0.091 -0.12,-0.207 -0.12,-0.334 0,-0.16 0.072,-0.304 0.185,-0.401 0.114,0.25 0.389,0.484 0.745,0.605 0.239,0.08 0.474,0.096 0.67,0.056 -0.031,0.094 -0.047,0.194 -0.047,0.297 0,0.534 0.432,0.966 0.965,0.966 0.049,0 0.098,-0.004 0.145,-0.011 -0.372,-0.05 -0.658,-0.369 -0.658,-0.754 0,-0.256 0.126,-0.482 0.319,-0.621 0,-0.013 -10e-4,-0.027 -10e-4,-0.041 0,-0.21 0.096,-0.396 0.247,-0.519 0.067,0.35 0.374,0.614 0.744,0.614 0.316,0 0.577,0.04 0.772,0.104 0.33,0.108 0.571,0.413 0.571,0.778 0,0.253 -0.115,0.479 -0.296,0.628 0.089,0.41 0.073,1.083 -0.066,1.643 0.028,0.004 0.057,0.006 0.087,0.006 0.23,0 0.433,-0.119 0.551,-0.298 m -25.936,2.827 0.138,0.271 c 0.027,0.052 0.038,0.108 0.037,0.163 -0.001,0.054 -0.015,0.11 -0.043,0.16 l 0.379,-0.682 c 0.028,-0.051 0.042,-0.107 0.043,-0.161 0.002,-0.055 -0.01,-0.112 -0.037,-0.164 l -0.034,-0.067 c -0.233,-0.452 -0.45,-1.299 -0.209,-1.79 -0.562,0.209 -0.747,0.701 -0.687,1.11 -1.057,1.002 -1.324,2.019 -0.569,2.871 l 0.388,0.453 c 0.039,0.044 0.064,0.096 0.075,0.149 0.013,0.053 0.013,0.11 -0.002,0.166 l 0.202,-0.753 c 0.015,-0.057 0.016,-0.114 0.003,-0.168 -0.012,-0.053 -0.037,-0.105 -0.075,-0.149 L 18.845,60.58 c -0.395,-0.46 -0.289,-1.083 0.33,-1.642 0.064,0.157 0.106,0.238 0.179,0.371 m 1.408,5.442 h -0.249 c -0.27,0 -0.509,0.362 -0.509,0.687 0.148,-0.165 0.304,-0.237 0.516,-0.237 h 1.142 c 0.102,0 0.204,-0.078 0.248,-0.21 0.032,-0.096 0.014,-0.24 -0.004,-0.381 -0.055,0.104 -0.124,0.141 -0.213,0.141 h -0.26 c 0.062,-0.075 0.099,-0.172 0.099,-0.277 0,-0.24 -0.195,-0.435 -0.435,-0.435 -0.24,0 -0.435,0.195 -0.435,0.435 0,0.105 0.037,0.202 0.1,0.277 m 0.287,2.062 0.474,-0.603 c 0.106,-0.128 0.139,-0.214 0.264,-0.231 h -0.398 c -0.199,0 -0.336,0.081 -0.452,0.215 l -0.455,0.594 c -0.075,0.094 -0.134,0.16 -0.232,0.203 h 0.45 c 0.135,0 0.255,-0.058 0.349,-0.178 m 1.319,0.147 0.582,-0.818 c 0.092,-0.134 0.179,-0.209 0.304,-0.26 h -0.533 c -0.205,0 -0.328,0.094 -0.418,0.242 l -0.458,0.702 c -0.175,0.263 -0.244,0.328 -0.445,0.4 h 0.495 c 0.195,0 0.377,-0.127 0.473,-0.266 m 2.081,-0.981 h -0.398 c -0.199,0 -0.336,0.081 -0.452,0.215 l -0.455,0.594 c -0.075,0.094 -0.134,0.16 -0.232,0.203 h 0.45 c 0.135,0 0.255,-0.058 0.349,-0.178 l 0.474,-0.603 c 0.106,-0.128 0.139,-0.214 0.264,-0.231 M 24.6,65.438 c 0,-0.325 -0.238,-0.687 -0.509,-0.687 h -0.248 c 0.062,-0.075 0.1,-0.172 0.1,-0.277 0,-0.24 -0.195,-0.435 -0.435,-0.435 -0.241,0 -0.436,0.195 -0.436,0.435 0,0.105 0.038,0.202 0.1,0.277 h -0.26 c -0.089,0 -0.158,-0.037 -0.213,-0.141 -0.018,0.141 -0.036,0.285 -0.004,0.381 0.044,0.132 0.146,0.21 0.248,0.21 h 1.142 c 0.211,0 0.368,0.072 0.515,0.237 M 24.249,62.967 C 24.17,62.946 24.127,62.9 24.118,62.817 24.071,62.371 23.89,62.191 23.601,62.09 23.597,61.64 23.535,61.3 23.413,60.878 c 0.343,-0.717 0.08,-1.218 -0.198,-1.326 -0.265,-0.102 -0.607,0.036 -0.91,0.036 -0.303,0 -0.65,-0.138 -0.915,-0.036 -0.279,0.108 -0.541,0.609 -0.199,1.326 -0.121,0.422 -0.184,0.762 -0.187,1.212 -0.289,0.101 -0.471,0.281 -0.518,0.727 -0.009,0.083 -0.052,0.129 -0.13,0.15 -1.14,0.313 -1.248,1.729 -0.671,2.13 -0.051,-0.634 -0.106,-1.529 1.19,-1.648 -0.021,-0.744 0.301,-0.943 0.632,-0.943 0.271,-10e-4 0.426,0.086 0.494,0.122 0.241,0.128 0.075,0.324 0.013,0.382 -0.166,0.155 -0.25,0.374 -0.21,0.594 0.007,0.039 0.022,0.06 0.059,0.06 h 0.439 0.439 c 0.037,0 0.053,-0.021 0.06,-0.06 0.039,-0.22 -0.045,-0.439 -0.21,-0.594 -0.062,-0.058 -0.228,-0.254 0.013,-0.382 0.067,-0.036 0.223,-0.123 0.494,-0.122 0.331,0 0.653,0.199 0.632,0.943 1.296,0.119 1.241,1.014 1.19,1.648 0.577,-0.401 0.468,-1.817 -0.671,-2.13 m -1.148,-2.729 c 0.034,0.379 -0.397,0.514 -0.799,0.514 -0.402,0 -0.832,-0.135 -0.799,-0.514 0.041,-0.462 0.473,-0.242 0.799,-0.244 0.326,0.002 0.758,-0.218 0.799,0.244 m -0.133,0.899 c 0.062,0.334 0.088,0.658 0.076,0.97 l -0.299,-0.35 c -0.059,0.139 -0.098,0.225 -0.138,0.294 -0.033,0.057 -0.061,0.096 -0.1,0.103 -0.02,-0.011 -0.05,-0.027 -0.083,-0.034 -0.038,-0.009 -0.09,-0.006 -0.122,-0.006 -0.031,0 -0.083,-0.003 -0.122,0.006 -0.032,0.007 -0.062,0.023 -0.082,0.034 -0.04,-0.007 -0.067,-0.046 -0.1,-0.103 -0.04,-0.069 -0.079,-0.155 -0.138,-0.294 l -0.3,0.35 c -0.011,-0.312 0.014,-0.636 0.077,-0.97 0.221,0.048 0.449,0.066 0.665,0.066 0.216,0 0.444,-0.018 0.666,-0.066 m 13.367,3.244 c 0.589,0.576 1.27,1.057 2.019,1.42 -0.022,0.087 -0.034,0.177 -0.034,0.269 v 0.006 c -3.126,-0.514 -5.939,-2.118 -8.479,-2.105 -0.712,0.003 -1.27,0.276 -1.36,0.727 -0.018,0.089 -0.016,0.181 0.003,0.272 0.038,0.176 0.194,0.309 0.382,0.309 0.216,0 0.39,-0.175 0.39,-0.391 0,-0.103 -0.04,-0.197 -0.105,-0.267 0.073,-0.007 0.148,-0.011 0.226,-0.011 0.201,0 0.392,0.025 0.56,0.07 0.275,0.074 0.477,0.325 0.477,0.623 0,0.356 -0.289,0.644 -0.645,0.644 -0.019,0 -0.039,-0.001 -0.058,-0.002 0.09,0.038 0.189,0.059 0.293,0.059 0.413,0 0.749,-0.335 0.749,-0.749 0,-0.022 -0.001,-0.043 -0.003,-0.064 1.116,0.025 2.374,1.043 2.649,1.431 -0.35,-0.08 -0.729,-0.124 -1.125,-0.124 -0.449,0 -0.878,0.055 -1.266,0.158 -0.549,0.145 -1.089,0.226 -1.504,0.226 -1.369,0 -2.479,-0.893 -2.479,-1.995 0,-0.91 0.752,-1.705 1.794,-1.918 2.371,-0.485 5.16,0.924 7.516,1.412 M 26.221,23.923 c 0,-0.135 0.037,-0.262 0.101,-0.371 0.245,0.249 0.556,0.434 0.904,0.528 0.146,0.516 0.62,0.893 1.182,0.893 0.048,0 0.095,-0.002 0.141,-0.008 -0.468,-0.135 -0.846,-0.484 -1.021,-0.934 -0.291,-0.096 -0.501,-0.371 -0.501,-0.694 0,-0.151 0.046,-0.291 0.124,-0.407 0.253,0.283 0.585,0.493 0.962,0.595 0.108,0.542 0.559,0.96 1.117,1.019 -0.487,-0.204 -0.829,-0.686 -0.829,-1.247 0,-0.198 0.043,-0.387 0.12,-0.557 0.086,0.309 0.369,0.536 0.705,0.536 0.085,0 0.166,-0.014 0.241,-0.041 0.104,-0.038 0.217,-0.058 0.334,-0.058 0.541,0 0.979,0.439 0.979,0.981 0,0.108 -0.017,0.212 -0.049,0.31 0.257,-0.075 0.446,-0.313 0.446,-0.595 0,-0.129 -0.04,-0.248 -0.107,-0.347 0.072,-0.013 0.146,-0.02 0.222,-0.02 0.637,0 1.163,0.479 1.236,1.097 0.32,0.173 0.601,0.407 0.843,0.699 l 0.17,-0.829 c 0.012,-0.057 0.009,-0.115 -0.007,-0.167 -0.015,-0.053 -0.043,-0.103 -0.084,-0.145 l 0.703,0.722 c 0.041,0.042 0.069,0.092 0.083,0.145 0.016,0.053 0.019,0.11 0.007,0.168 l -0.207,1.011 c -0.012,0.057 -0.009,0.115 0.007,0.167 0.015,0.053 0.043,0.103 0.084,0.145 l 0.553,0.564 c -0.041,-0.042 -0.069,-0.092 -0.084,-0.145 -0.015,-0.053 -0.018,-0.11 -0.006,-0.167 l 0.207,-1.013 C 34.809,25.7 34.806,25.643 34.791,25.59 34.776,25.538 34.749,25.489 34.709,25.447 l 0.627,0.652 c 0.04,0.042 0.068,0.092 0.083,0.145 0.016,0.052 0.019,0.11 0.007,0.167 l -0.207,1.01 c -0.012,0.057 -0.009,0.115 0.007,0.167 0.015,0.053 0.043,0.103 0.084,0.145 l 0.553,0.564 C 35.822,28.255 35.794,28.205 35.779,28.152 35.764,28.1 35.761,28.042 35.773,27.985 l 0.208,-1.013 c 0.012,-0.057 0.008,-0.115 -0.007,-0.167 -0.015,-0.052 -0.042,-0.101 -0.082,-0.143 l 0.627,0.651 c 0.041,0.042 0.068,0.093 0.083,0.145 0.016,0.053 0.019,0.11 0.007,0.168 l -0.101,0.494 c -0.106,0.559 0.471,1.202 0.929,1.267 0.055,0.106 0.085,0.221 0.085,0.34 0,0.567 -0.675,1.027 -1.509,1.027 -0.407,0 -0.777,-0.11 -1.049,-0.289 0.109,-0.323 0.132,-0.651 -0.937,-0.803 -0.848,-0.12 -1.594,-0.285 -2.161,-0.766 -0.874,-0.741 -0.803,-1.732 -1.3,-2.107 0.221,-0.054 0.502,-0.054 0.803,0.011 0.19,0.041 0.366,0.104 0.521,0.182 -0.093,-0.179 -0.306,-0.348 -0.586,-0.468 -0.092,-0.35 -0.403,-0.684 -0.823,-0.84 -0.265,-0.098 -0.528,-0.108 -0.746,-0.045 l -1.023,0.296 c -0.126,0.036 -0.257,0.055 -0.394,0.055 -0.754,0 -1.376,-0.581 -1.468,-1.332 -0.356,-0.05 -0.629,-0.356 -0.629,-0.725" /><g
           transform="translate(229.4062,45.9434)"
           id="g22"><path
             id="path24"
             style="fill:#231f20;fill-opacity:1;fill-rule:nonzero;stroke:none"
             d="M 0,0 0.013,0.037 C 0.029,0.725 -0.173,1.263 -0.594,1.651 -1.014,2.038 -1.6,2.232 -2.35,2.232 -3.079,2.232 -3.658,2.048 -4.087,1.68 -4.516,1.311 -4.729,0.827 -4.729,0.227 c 0,-0.617 0.178,-1.081 0.537,-1.391 0.358,-0.311 0.931,-0.576 1.718,-0.795 0.514,-0.169 0.868,-0.346 1.06,-0.53 0.193,-0.183 0.289,-0.424 0.289,-0.721 0,-0.31 -0.105,-0.561 -0.316,-0.756 -0.211,-0.194 -0.525,-0.291 -0.94,-0.291 -0.385,0 -0.701,0.101 -0.948,0.302 -0.246,0.202 -0.369,0.531 -0.369,0.988 h -1.205 l -0.02,-0.038 c -0.02,-0.742 0.205,-1.296 0.678,-1.662 0.473,-0.365 1.095,-0.547 1.864,-0.547 0.768,0 1.377,0.178 1.831,0.536 0.454,0.358 0.681,0.849 0.681,1.473 0,0.608 -0.181,1.072 -0.541,1.393 -0.361,0.319 -0.92,0.59 -1.679,0.81 -0.562,0.173 -0.934,0.346 -1.115,0.52 -0.181,0.175 -0.271,0.416 -0.271,0.723 0,0.3 0.093,0.547 0.277,0.742 0.184,0.195 0.468,0.292 0.848,0.292 0.377,0 0.663,-0.117 0.855,-0.35 C -1.302,0.693 -1.206,0.384 -1.206,0 Z m -7.583,-5.108 h 1.299 v 0.105 c -0.054,0.087 -0.09,0.224 -0.109,0.41 -0.018,0.187 -0.028,0.371 -0.028,0.553 v 0.665 c 0,0.437 -0.087,0.801 -0.261,1.098 -0.173,0.297 -0.456,0.505 -0.844,0.624 0.347,0.162 0.612,0.384 0.796,0.665 0.181,0.282 0.272,0.616 0.272,1.001 0,0.667 -0.208,1.187 -0.625,1.56 -0.416,0.373 -0.993,0.56 -1.73,0.56 h -2.418 v -7.241 h 1.255 v 2.933 h 1.268 c 0.331,0 0.586,-0.106 0.765,-0.317 0.178,-0.211 0.267,-0.508 0.267,-0.889 v -0.652 c 0,-0.216 0.005,-0.427 0.015,-0.634 0.012,-0.208 0.036,-0.354 0.078,-0.441 m -0.137,5.065 c 0,-0.377 -0.09,-0.667 -0.27,-0.87 -0.18,-0.203 -0.454,-0.305 -0.823,-0.305 h -1.163 v 2.393 h 1.163 c 0.364,0 0.637,-0.109 0.82,-0.329 0.182,-0.22 0.273,-0.516 0.273,-0.889 m -6.643,-5.065 h 1.256 v 7.241 h -1.256 z m -2.568,0 h 1.319 l -2.412,7.241 h -1.3 l -2.424,-7.241 h 1.324 l 0.516,1.634 h 2.455 z m -0.821,2.591 h -1.857 l 0.906,2.884 h 0.038 z m -7.838,3.692 h 3.183 v 0.958 h -4.438 v -7.241 h 1.255 v 3.127 h 2.73 v 0.957 h -2.73 z m -5.954,0 h 3.183 V 2.133 H -32.8 v -7.241 h 1.256 v 3.127 h 2.73 v 0.957 h -2.73 z m -3.723,-6.283 h 1.281 l -2.761,9.049 h -1.218 l -2.785,-9.049 h 1.281 l 0.659,2.287 h 2.884 z m -0.945,3.287 h -2.306 l 1.137,3.954 h 0.038 z m -8.601,1.585 0.011,0.038 c 0.017,0.787 -0.196,1.389 -0.636,1.805 -0.442,0.417 -1.052,0.625 -1.831,0.625 -0.758,0 -1.378,-0.275 -1.862,-0.827 -0.482,-0.551 -0.723,-1.263 -0.723,-2.138 v -1.51 c 0,-0.879 0.241,-1.594 0.723,-2.145 0.484,-0.55 1.104,-0.826 1.862,-0.826 0.77,0 1.377,0.208 1.821,0.624 0.443,0.417 0.656,1.021 0.64,1.812 l -0.011,0.038 h -1.214 c 0,-0.525 -0.102,-0.907 -0.307,-1.152 -0.205,-0.243 -0.514,-0.365 -0.929,-0.365 -0.398,0 -0.718,0.188 -0.963,0.566 -0.245,0.376 -0.368,0.86 -0.368,1.452 v 1.515 c 0,0.583 0.123,1.062 0.368,1.437 0.245,0.375 0.565,0.562 0.963,0.562 0.418,0 0.731,-0.124 0.938,-0.373 0.207,-0.249 0.311,-0.628 0.311,-1.138 z m -3.858,-11.713 c -0.42,0.387 -1.006,0.581 -1.756,0.581 -0.729,0 -1.307,-0.184 -1.737,-0.552 -0.429,-0.369 -0.643,-0.852 -0.643,-1.453 0,-0.617 0.179,-1.081 0.537,-1.391 0.359,-0.311 0.931,-0.576 1.719,-0.795 0.514,-0.169 0.867,-0.346 1.06,-0.53 0.192,-0.182 0.289,-0.424 0.289,-0.721 0,-0.31 -0.106,-0.562 -0.317,-0.755 -0.211,-0.195 -0.525,-0.291 -0.939,-0.291 -0.385,0 -0.701,0.1 -0.948,0.301 -0.245,0.202 -0.369,0.532 -0.369,0.989 h -1.206 L -53,-16.604 c -0.021,-0.743 0.205,-1.296 0.677,-1.663 0.473,-0.365 1.094,-0.546 1.865,-0.546 0.768,0 1.377,0.178 1.831,0.535 0.453,0.358 0.681,0.849 0.681,1.473 0,0.608 -0.181,1.073 -0.541,1.392 -0.361,0.32 -0.92,0.591 -1.679,0.811 -0.563,0.173 -0.935,0.346 -1.116,0.52 -0.18,0.175 -0.27,0.416 -0.27,0.724 0,0.299 0.092,0.546 0.278,0.741 0.183,0.195 0.466,0.292 0.847,0.292 0.377,0 0.662,-0.116 0.856,-0.35 0.192,-0.232 0.288,-0.541 0.288,-0.925 h 1.206 l 0.013,0.037 c 0.016,0.689 -0.186,1.226 -0.607,1.614 m -4.118,6.841 h 1.256 v 7.241 h -1.256 z m -3.089,-13.601 h 1.262 v 7.242 h -1.262 v -4.998 l -0.037,-0.012 -2.778,5.01 h -1.256 v -7.242 h 1.256 v 5.004 l 0.037,0.013 z m -0.074,13.601 h 1.262 v 7.241 h -1.579 l -1.685,-5.694 h -0.037 l -1.672,5.694 h -1.585 v -7.241 h 1.255 v 4.779 l 0.038,0.006 1.56,-4.785 h 0.851 l 1.554,4.754 0.038,-0.006 z m -1.232,13.599 h 0.777 l -2.424,7.242 h -0.721 l -2.429,-7.242 h 0.775 l 0.61,1.884 h 2.803 z m -0.82,2.518 h -2.381 l 1.169,3.611 h 0.037 z m -3.598,-25.342 c 0,0.883 -0.249,1.599 -0.746,2.145 -0.498,0.547 -1.142,0.82 -1.933,0.82 -0.796,0 -1.44,-0.273 -1.933,-0.82 -0.494,-0.546 -0.74,-1.262 -0.74,-2.145 v -1.51 c 0,-0.89 0.247,-1.609 0.743,-2.154 0.495,-0.545 1.143,-0.816 1.942,-0.816 0.792,0 1.434,0.271 1.927,0.816 0.493,0.545 0.74,1.264 0.74,2.154 z m -1.255,-1.502 c 0,-0.633 -0.125,-1.128 -0.376,-1.486 -0.251,-0.357 -0.597,-0.535 -1.036,-0.535 -0.452,0 -0.802,0.178 -1.053,0.535 -0.25,0.358 -0.377,0.853 -0.377,1.486 v 1.513 c 0,0.62 0.125,1.108 0.373,1.465 0.249,0.354 0.597,0.532 1.045,0.532 0.443,0 0.791,-0.178 1.045,-0.532 0.253,-0.357 0.379,-0.845 0.379,-1.465 z m -0.784,11.439 c 0.494,0.544 0.74,1.262 0.74,2.153 v 1.51 c 0,0.883 -0.248,1.598 -0.745,2.145 -0.499,0.547 -1.143,0.82 -1.935,0.82 -0.795,0 -1.44,-0.273 -1.933,-0.82 -0.493,-0.547 -0.739,-1.262 -0.739,-2.145 v -1.51 c 0,-0.891 0.247,-1.609 0.742,-2.153 0.496,-0.545 1.143,-0.818 1.944,-0.818 0.791,0 1.433,0.273 1.926,0.818 m -0.516,2.162 c 0,-0.634 -0.125,-1.129 -0.376,-1.487 -0.251,-0.357 -0.596,-0.536 -1.034,-0.536 -0.453,0 -0.804,0.179 -1.055,0.536 -0.25,0.358 -0.376,0.853 -0.376,1.487 v 1.512 c 0,0.62 0.125,1.108 0.373,1.464 0.249,0.355 0.598,0.533 1.044,0.533 0.444,0 0.792,-0.178 1.045,-0.533 0.252,-0.356 0.379,-0.844 0.379,-1.464 z m -0.051,10.725 h 0.74 v 7.241 h -0.74 z m -3.082,0 h 0.746 v 7.242 H -67.29 V 9.877 l -0.037,-0.006 -3.425,5.862 h -0.746 V 8.491 h 0.746 v 5.849 l 0.037,0.007 z m -6.769,0.703 c 0.46,0.538 0.69,1.259 0.69,2.163 v 1.51 c 0,0.895 -0.232,1.613 -0.695,2.154 -0.464,0.541 -1.072,0.811 -1.822,0.811 -0.75,0 -1.355,-0.27 -1.815,-0.811 -0.46,-0.541 -0.69,-1.259 -0.69,-2.154 v -1.51 c 0,-0.904 0.231,-1.625 0.694,-2.163 0.462,-0.539 1.069,-0.808 1.823,-0.808 0.75,0 1.355,0.269 1.815,0.808 m -0.056,2.164 c 0,-0.753 -0.156,-1.33 -0.469,-1.734 -0.312,-0.403 -0.743,-0.604 -1.29,-0.604 -0.555,0 -0.988,0.201 -1.302,0.604 -0.312,0.404 -0.469,0.981 -0.469,1.734 v 1.521 c 0,0.74 0.155,1.311 0.466,1.714 0.311,0.404 0.742,0.605 1.293,0.605 0.551,0 0.985,-0.201 1.299,-0.605 0.316,-0.403 0.472,-0.974 0.472,-1.714 z m -7.434,3.741 h 1.971 v 0.634 h -4.625 v -0.634 h 1.908 V 8.491 h 0.746 z m -2.2,-15.297 c 0.018,0.787 -0.194,1.389 -0.637,1.805 -0.441,0.417 -1.051,0.625 -1.83,0.625 -0.759,0 -1.379,-0.275 -1.862,-0.827 -0.483,-0.551 -0.724,-1.263 -0.724,-2.138 v -1.51 c 0,-0.879 0.241,-1.594 0.724,-2.145 0.483,-0.55 1.103,-0.826 1.862,-0.826 0.771,0 1.378,0.208 1.821,0.624 0.443,0.417 0.658,1.021 0.64,1.812 l -0.012,0.038 h -1.212 c 0,-0.525 -0.103,-0.907 -0.308,-1.152 -0.205,-0.243 -0.515,-0.365 -0.929,-0.365 -0.397,0 -0.719,0.188 -0.964,0.566 -0.244,0.376 -0.366,0.86 -0.366,1.452 v 1.515 c 0,0.583 0.122,1.062 0.366,1.437 0.245,0.375 0.567,0.562 0.964,0.562 0.418,0 0.732,-0.124 0.939,-0.373 0.207,-0.249 0.31,-0.628 0.31,-1.138 h 1.206 z m -4.941,13.269 c -0.216,0.208 -0.324,0.492 -0.324,0.854 0,0.366 0.124,0.67 0.373,0.911 0.248,0.242 0.618,0.362 1.106,0.362 0.47,0 0.833,-0.145 1.095,-0.435 0.26,-0.29 0.391,-0.665 0.391,-1.124 h 0.696 l 0.012,0.038 c 0.017,0.679 -0.17,1.208 -0.561,1.587 -0.393,0.379 -0.937,0.568 -1.633,0.568 -0.683,0 -1.226,-0.174 -1.628,-0.522 -0.401,-0.348 -0.603,-0.814 -0.603,-1.398 0,-0.588 0.172,-1.031 0.516,-1.329 0.344,-0.298 0.89,-0.565 1.634,-0.801 0.626,-0.208 1.056,-0.419 1.29,-0.633 0.234,-0.214 0.351,-0.498 0.351,-0.851 0,-0.366 -0.143,-0.67 -0.427,-0.914 -0.286,-0.243 -0.683,-0.364 -1.189,-0.364 -0.456,0 -0.842,0.123 -1.159,0.371 -0.316,0.248 -0.475,0.645 -0.475,1.19 h -0.703 l -0.011,-0.037 c -0.022,-0.747 0.196,-1.293 0.651,-1.639 0.456,-0.346 1.022,-0.519 1.697,-0.519 0.721,0 1.296,0.17 1.725,0.51 0.429,0.34 0.644,0.81 0.644,1.411 0,0.577 -0.174,1.017 -0.523,1.322 -0.348,0.305 -0.891,0.575 -1.628,0.811 -0.663,0.213 -1.102,0.423 -1.317,0.631 m -6.414,-18.179 h 5.152 v 0.958 h -3.891 v 3.249 h 3.358 v 0.958 h -3.358 v 2.927 h 3.855 v 0.957 h -5.116 z M -96,8.491 h 4.829 v 0.634 h -4.084 v 3.742 h 3.556 v 0.634 h -3.556 v 3.382 h 4.047 v 0.659 H -96 Z m 0.753,-24.968 -2.778,5.01 h -1.256 v -7.242 h 1.256 v 5.004 l 0.038,0.013 2.777,-5.017 h 1.263 v 7.242 h -1.263 v -4.998 z m -7.664,17.652 h 3.182 v 0.958 h -4.438 v -7.241 h 1.256 v 3.127 h 2.729 v 0.957 h -2.729 z m -1.169,13.924 h 3.369 v 0.634 h -4.115 V 8.491 h 0.746 v 3.313 h 2.928 v 0.653 h -2.928 z m -0.721,-32.522 c -0.257,0.29 -0.385,0.695 -0.385,1.216 v 4.74 h -1.255 v -4.749 c 0,-0.817 0.247,-1.454 0.739,-1.912 0.493,-0.457 1.139,-0.685 1.939,-0.685 0.8,0 1.447,0.228 1.941,0.685 0.492,0.458 0.738,1.095 0.738,1.912 v 4.749 h -1.255 v -4.74 c 0,-0.521 -0.128,-0.926 -0.383,-1.216 -0.254,-0.289 -0.602,-0.433 -1.041,-0.433 -0.434,0 -0.781,0.144 -1.038,0.433 m -1.759,13.027 c 0.494,0.544 0.741,1.262 0.741,2.153 v 1.51 c 0,0.883 -0.249,1.598 -0.746,2.145 -0.498,0.547 -1.142,0.82 -1.934,0.82 -0.796,0 -1.44,-0.273 -1.933,-0.82 -0.493,-0.547 -0.74,-1.262 -0.74,-2.145 v -1.51 c 0,-0.891 0.248,-1.609 0.743,-2.153 0.495,-0.545 1.143,-0.818 1.943,-0.818 0.792,0 1.433,0.273 1.926,0.818 m -0.516,2.162 c 0,-0.634 -0.125,-1.129 -0.376,-1.487 -0.25,-0.357 -0.595,-0.536 -1.034,-0.536 -0.452,0 -0.803,0.179 -1.054,0.536 -0.251,0.358 -0.376,0.853 -0.376,1.487 v 1.512 c 0,0.62 0.124,1.108 0.373,1.464 0.248,0.355 0.597,0.533 1.044,0.533 0.443,0 0.792,-0.178 1.044,-0.533 0.253,-0.356 0.379,-0.844 0.379,-1.464 z m -0.311,11.428 c 0.46,0.538 0.691,1.259 0.691,2.163 v 1.51 c 0,0.895 -0.233,1.613 -0.697,2.154 -0.463,0.541 -1.071,0.811 -1.821,0.811 -0.751,0 -1.356,-0.27 -1.815,-0.811 -0.46,-0.541 -0.69,-1.259 -0.69,-2.154 v -1.51 c 0,-0.904 0.231,-1.625 0.693,-2.163 0.462,-0.539 1.07,-0.808 1.824,-0.808 0.75,0 1.355,0.269 1.815,0.808 m -0.055,2.164 c 0,-0.753 -0.157,-1.33 -0.47,-1.734 -0.313,-0.403 -0.743,-0.604 -1.29,-0.604 -0.555,0 -0.989,0.201 -1.302,0.604 -0.313,0.404 -0.47,0.981 -0.47,1.734 v 1.521 c 0,0.74 0.156,1.311 0.467,1.714 0.31,0.404 0.741,0.605 1.293,0.605 0.551,0 0.985,-0.201 1.299,-0.605 0.315,-0.403 0.473,-0.974 0.473,-1.714 z m -4.121,-28.519 -1.672,5.694 h -1.585 v -7.242 h 1.255 v 4.78 l 0.038,0.006 1.56,-4.786 h 0.851 l 1.554,4.755 0.037,-0.006 v -4.749 h 1.262 v 7.242 h -1.579 l -1.684,-5.694 z m -5.83,14.657 2.181,4.637 h -1.386 l -1.392,-3.369 h -0.037 l -1.399,3.369 h -1.38 l 2.151,-4.581 v -2.66 h 1.262 z m -2.866,13.862 v 1.521 c 0,0.677 0.155,1.233 0.466,1.668 0.311,0.434 0.712,0.651 1.206,0.651 0.505,0 0.897,-0.149 1.174,-0.447 0.278,-0.299 0.417,-0.738 0.417,-1.318 h 0.702 l 0.019,0.037 c 0.012,0.758 -0.192,1.342 -0.612,1.75 -0.421,0.408 -0.988,0.612 -1.7,0.612 -0.709,0 -1.289,-0.275 -1.741,-0.827 -0.452,-0.551 -0.677,-1.263 -0.677,-2.138 v -1.51 c 0,-0.879 0.225,-1.594 0.677,-2.145 0.452,-0.551 1.032,-0.826 1.741,-0.826 0.7,0 1.263,0.203 1.69,0.609 0.427,0.406 0.634,0.99 0.622,1.753 l -0.019,0.037 h -0.702 c 0,-0.595 -0.139,-1.038 -0.417,-1.329 -0.277,-0.291 -0.669,-0.436 -1.174,-0.436 -0.494,0 -0.895,0.217 -1.206,0.651 -0.311,0.434 -0.466,0.997 -0.466,1.687 m -2.604,-16.466 h 1.299 v 0.105 c -0.054,0.087 -0.09,0.224 -0.109,0.41 -0.018,0.187 -0.028,0.371 -0.028,0.553 v 0.665 c 0,0.437 -0.087,0.801 -0.261,1.098 -0.174,0.297 -0.456,0.505 -0.845,0.624 0.348,0.162 0.613,0.384 0.795,0.665 0.183,0.282 0.274,0.616 0.274,1.001 0,0.667 -0.208,1.187 -0.625,1.56 -0.416,0.373 -0.993,0.56 -1.731,0.56 h -2.418 v -7.241 h 1.256 v 2.933 h 1.268 c 0.331,0 0.586,-0.106 0.764,-0.317 0.178,-0.211 0.268,-0.508 0.268,-0.889 v -0.652 c 0,-0.216 0.005,-0.427 0.015,-0.634 0.01,-0.208 0.036,-0.354 0.078,-0.441 M -123,-0.043 c 0,-0.377 -0.09,-0.667 -0.27,-0.87 -0.181,-0.203 -0.455,-0.305 -0.824,-0.305 h -1.162 v 2.393 h 1.162 c 0.365,0 0.638,-0.109 0.821,-0.329 0.182,-0.22 0.273,-0.516 0.273,-0.889 m -0.61,8.534 h 0.74 v 7.241 h -0.74 z m -5.196,0 h 3.637 v 0.634 h -2.891 v 6.608 h -0.746 z m -2.107,3.108 c -0.223,0.319 -0.524,0.522 -0.901,0.609 0.323,0.12 0.576,0.324 0.758,0.609 0.183,0.286 0.274,0.616 0.274,0.989 0,0.642 -0.197,1.124 -0.591,1.445 -0.393,0.321 -0.944,0.482 -1.653,0.482 h -1.958 V 8.491 h 2.319 c 0.65,0 1.161,0.17 1.532,0.51 0.371,0.34 0.556,0.835 0.556,1.486 0,0.422 -0.112,0.793 -0.336,1.112 m -1,1.2 c -0.253,-0.224 -0.624,-0.336 -1.113,-0.336 h -1.212 v 2.561 h 1.212 c 0.501,0 0.875,-0.098 1.122,-0.295 0.246,-0.197 0.37,-0.513 0.37,-0.948 0,-0.431 -0.127,-0.758 -0.379,-0.982 m 0.59,-2.3 c 0,-0.443 -0.116,-0.783 -0.348,-1.019 -0.232,-0.237 -0.564,-0.355 -0.994,-0.355 h -1.573 v 2.729 h 1.573 0.062 c 0.406,-0.012 0.721,-0.141 0.944,-0.385 0.224,-0.245 0.336,-0.568 0.336,-0.97 m -3.086,-8.848 c -0.42,0.387 -1.006,0.581 -1.756,0.581 -0.729,0 -1.308,-0.184 -1.737,-0.552 -0.429,-0.369 -0.643,-0.853 -0.643,-1.453 0,-0.617 0.179,-1.081 0.537,-1.391 0.359,-0.311 0.932,-0.576 1.719,-0.795 0.514,-0.169 0.867,-0.346 1.06,-0.53 0.192,-0.183 0.289,-0.424 0.289,-0.721 0,-0.31 -0.106,-0.561 -0.317,-0.756 -0.212,-0.194 -0.524,-0.291 -0.939,-0.291 -0.385,0 -0.701,0.101 -0.948,0.302 -0.246,0.202 -0.37,0.531 -0.37,0.988 h -1.205 l -0.019,-0.038 c -0.021,-0.742 0.205,-1.296 0.677,-1.662 0.473,-0.365 1.094,-0.547 1.865,-0.547 0.767,0 1.377,0.178 1.831,0.536 0.454,0.358 0.68,0.849 0.68,1.473 0,0.608 -0.18,1.072 -0.54,1.393 -0.361,0.319 -0.92,0.59 -1.679,0.81 -0.563,0.173 -0.935,0.346 -1.115,0.52 -0.181,0.175 -0.271,0.416 -0.271,0.723 0,0.3 0.092,0.547 0.277,0.742 0.184,0.195 0.467,0.292 0.848,0.292 0.377,0 0.662,-0.117 0.855,-0.35 0.193,-0.232 0.289,-0.541 0.289,-0.925 h 1.206 l 0.012,0.037 c 0.017,0.688 -0.185,1.226 -0.606,1.614 m -3.157,7.412 c 0.466,0.452 0.699,1.078 0.699,1.877 v 4.793 h -0.746 v -4.797 c 0,-0.593 -0.164,-1.061 -0.491,-1.403 -0.327,-0.342 -0.752,-0.513 -1.274,-0.513 -0.518,0 -0.942,0.172 -1.271,0.516 -0.33,0.344 -0.495,0.811 -0.495,1.4 v 4.797 h -0.745 V 10.94 c 0,-0.799 0.233,-1.425 0.699,-1.877 0.466,-0.452 1.07,-0.677 1.812,-0.677 0.741,0 1.345,0.225 1.812,0.677 m -4.205,-23.501 c 0,0.871 -0.255,1.583 -0.764,2.138 -0.51,0.555 -1.146,0.833 -1.909,0.833 h -2.3 v -7.242 h 2.3 c 0.763,0 1.399,0.277 1.909,0.83 0.509,0.553 0.764,1.265 0.764,2.135 z m -1.255,-1.298 c 0,-0.583 -0.135,-1.065 -0.405,-1.445 -0.269,-0.38 -0.607,-0.57 -1.013,-0.57 h -1.044 v 5.326 h 1.044 c 0.406,0 0.744,-0.191 1.013,-0.573 0.27,-0.383 0.405,-0.858 0.405,-1.43 z m -1.722,10.628 h 1.262 v 7.241 h -1.262 v -4.998 l -0.038,-0.012 -2.778,5.01 h -1.256 v -7.241 h 1.256 v 5.003 l 0.037,0.012 z m 0.643,16.942 c 0.383,0.417 0.575,0.96 0.575,1.63 0,0.665 -0.192,1.21 -0.575,1.633 -0.383,0.424 -0.909,0.636 -1.576,0.636 h -2.318 V 8.491 h 0.746 v 2.717 h 1.572 c 0.667,0 1.193,0.208 1.576,0.626 m -0.177,1.617 c 0,-0.449 -0.118,-0.83 -0.355,-1.141 -0.236,-0.312 -0.584,-0.468 -1.044,-0.468 h -1.572 v 3.257 h 1.572 c 0.46,0 0.808,-0.158 1.044,-0.475 0.237,-0.316 0.355,-0.707 0.355,-1.173 m -9.628,-4.96 h 4.115 v 0.634 h -3.369 v 2.822 h 2.921 v 0.634 h -2.921 v 2.518 h 3.369 v 0.634 h -4.115 z m 0.056,-4.55 h -1.628 l -2.12,-7.383 h -0.037 l -2.114,7.383 h -1.622 v -9.049 h 1.249 v 3.474 l -0.118,3.475 0.038,0.006 2.169,-6.955 h 0.833 l 2.175,6.961 0.038,-0.006 -0.112,-3.481 v -3.474 h 1.249 z m -2.841,4.55 h 0.765 v 0.15 c -0.128,0.141 -0.22,0.323 -0.273,0.547 -0.054,0.224 -0.081,0.477 -0.081,0.76 V 10.8 c 0,0.544 -0.101,0.998 -0.302,1.363 -0.201,0.366 -0.531,0.619 -0.991,0.76 0.418,0.178 0.742,0.454 0.969,0.828 0.228,0.375 0.342,0.802 0.342,1.283 0,0.815 -0.215,1.436 -0.646,1.862 -0.431,0.426 -1.053,0.639 -1.865,0.639 h -2.598 V 8.491 h 0.746 v 4.096 h 2.039 c 0.484,0 0.866,-0.162 1.143,-0.486 0.278,-0.324 0.417,-0.76 0.417,-1.309 V 9.963 c 0,-0.3 0.024,-0.582 0.071,-0.848 0.048,-0.266 0.136,-0.474 0.264,-0.624 m -2.169,4.73 h -1.765 v 3.662 h 1.852 c 0.593,0 1.034,-0.16 1.324,-0.479 0.29,-0.319 0.435,-0.775 0.435,-1.367 0,-0.56 -0.148,-1.002 -0.444,-1.328 -0.297,-0.325 -0.764,-0.488 -1.402,-0.488 m -0.087,-24.688 -2.424,-7.242 h 1.324 l 0.516,1.635 h 2.455 l 0.522,-1.635 h 1.318 l -2.412,7.242 z m -0.286,-4.65 0.908,2.885 h 0.037 l 0.914,-2.885 z m 7.285,11.009 h 1.256 v 7.241 h -1.256 z m -0.783,-6.359 h -1.256 v -7.242 h 1.256 v 5.004 l 0.037,0.013 2.778,-5.017 h 1.262 v 7.242 h -1.262 v -4.998 l -0.037,-0.012 z m 12.418,13.6 h -1.256 v -7.241 h 1.256 z m 3.82,-12.562 c -0.525,-0.601 -0.787,-1.436 -0.787,-2.505 v -2.511 c 0,-1.07 0.266,-1.902 0.796,-2.499 0.53,-0.597 1.239,-0.895 2.126,-0.895 0.87,0 1.543,0.247 2.02,0.743 0.476,0.495 0.717,1.194 0.721,2.097 l -0.019,0.038 h -1.199 c -0.009,-0.672 -0.134,-1.16 -0.376,-1.464 -0.243,-0.304 -0.625,-0.457 -1.147,-0.457 -0.531,0 -0.942,0.21 -1.234,0.629 -0.292,0.419 -0.438,1.024 -0.438,1.813 v 2.533 c 0,0.776 0.143,1.374 0.429,1.793 0.286,0.419 0.688,0.63 1.206,0.63 0.534,0 0.926,-0.158 1.174,-0.47 0.249,-0.313 0.38,-0.801 0.392,-1.464 h 1.193 l 0.019,0.037 c -0.012,0.932 -0.257,1.641 -0.733,2.126 -0.477,0.485 -1.159,0.727 -2.045,0.727 -0.875,0 -1.574,-0.3 -2.098,-0.901 m 3.689,11.604 h 1.833 v -6.283 h 1.256 v 6.283 h 1.871 v 0.958 h -4.96 z m 3.263,-13.363 c -0.493,-0.546 -0.74,-1.262 -0.74,-2.145 v -1.51 c 0,-0.89 0.248,-1.609 0.743,-2.154 0.495,-0.545 1.143,-0.816 1.942,-0.816 0.792,0 1.434,0.271 1.927,0.816 0.493,0.545 0.74,1.264 0.74,2.154 v 1.51 c 0,0.883 -0.249,1.599 -0.746,2.145 -0.497,0.547 -1.142,0.82 -1.933,0.82 -0.796,0 -1.44,-0.273 -1.933,-0.82 m 0.516,-2.134 c 0,0.62 0.124,1.108 0.373,1.465 0.248,0.354 0.596,0.532 1.044,0.532 0.443,0 0.791,-0.178 1.044,-0.532 0.253,-0.357 0.379,-0.845 0.379,-1.465 v -1.513 c 0,-0.633 -0.125,-1.128 -0.376,-1.486 -0.25,-0.357 -0.595,-0.535 -1.035,-0.535 -0.451,0 -0.802,0.178 -1.053,0.535 -0.251,0.358 -0.376,0.853 -0.376,1.486 z m 7.334,2.855 h -1.585 v -7.242 h 1.256 v 4.78 l 0.037,0.006 1.56,-4.786 h 0.852 l 1.554,4.755 0.037,-0.006 v -4.749 h 1.262 v 7.242 h -1.579 l -1.684,-5.694 h -0.038 z m 30.918,0 h -1.257 v -7.241 h 1.257 z m 2.401,-0.728 c -0.482,-0.551 -0.724,-1.263 -0.724,-2.138 v -1.51 c 0,-0.879 0.242,-1.594 0.724,-2.145 0.482,-0.551 1.104,-0.825 1.861,-0.825 0.771,0 1.378,0.208 1.823,0.624 0.442,0.417 0.655,1.02 0.639,1.811 l -0.012,0.038 h -1.212 c 0,-0.525 -0.103,-0.908 -0.308,-1.152 -0.205,-0.242 -0.515,-0.364 -0.93,-0.364 -0.397,0 -0.718,0.187 -0.963,0.564 -0.245,0.376 -0.367,0.861 -0.367,1.453 v 1.515 c 0,0.583 0.122,1.062 0.367,1.437 0.245,0.375 0.566,0.562 0.963,0.562 0.419,0 0.732,-0.124 0.939,-0.373 0.207,-0.249 0.311,-0.628 0.311,-1.138 h 1.206 l 0.012,0.038 c 0.018,0.787 -0.196,1.389 -0.637,1.805 -0.441,0.417 -1.051,0.625 -1.831,0.625 -0.757,0 -1.379,-0.275 -1.861,-0.827 m 8.761,6.981 c 0.791,0 1.433,0.273 1.927,0.818 0.494,0.544 0.739,1.262 0.739,2.153 v 1.51 c 0,0.883 -0.247,1.598 -0.745,2.145 -0.497,0.547 -1.142,0.82 -1.934,0.82 -0.795,0 -1.439,-0.273 -1.933,-0.82 -0.493,-0.547 -0.74,-1.262 -0.74,-2.145 v -1.51 c 0,-0.891 0.248,-1.609 0.743,-2.153 0.495,-0.545 1.143,-0.818 1.943,-0.818 m 1.035,1.493 c -0.251,-0.357 -0.596,-0.536 -1.035,-0.536 -0.451,0 -0.803,0.179 -1.054,0.536 -0.251,0.358 -0.376,0.853 -0.376,1.487 v 1.512 c 0,0.62 0.124,1.108 0.373,1.464 0.249,0.355 0.597,0.533 1.044,0.533 0.444,0 0.792,-0.178 1.045,-0.533 0.252,-0.356 0.379,-0.844 0.379,-1.464 v -1.512 c 0,-0.634 -0.126,-1.129 -0.376,-1.487 m -1.991,-7.746 -2.426,-7.242 h 1.324 l 0.516,1.635 h 2.455 l 0.523,-1.635 h 1.318 l -2.411,7.242 z m -0.286,-4.65 0.906,2.885 h 0.037 L -79,-16.117 Z m 9.515,4.65 h -4.96 v -0.958 h 1.833 v -6.284 h 1.256 v 6.284 h 1.871 z m -2.661,11.374 2.779,-5.015 h 1.262 v 7.241 h -1.262 v -4.998 l -0.038,-0.012 -2.778,5.01 h -1.256 v -7.241 h 1.256 v 5.003 z m 5.377,-11.374 h -1.256 v -7.241 h 1.256 z" /></g></g></g></g></svg>