<?xml version="1.0" encoding="utf-8"?>
<!-- Generator: Adobe Illustrator 17.0.0, SVG Export Plug-In . SVG Version: 6.00 Build 0)  -->
<!DOCTYPE svg PUBLIC "-//W3C//DTD SVG 1.1//EN" "http://www.w3.org/Graphics/SVG/1.1/DTD/svg11.dtd">
<svg version="1.1" id="Layer_1" xmlns="http://www.w3.org/2000/svg" xmlns:xlink="http://www.w3.org/1999/xlink" x="0px" y="0px"
	 width="175.749px" height="87.888px" viewBox="8.503 43.61 175.749 87.888" enable-background="new 8.503 43.61 175.749 87.888"
	 xml:space="preserve">
<g>
	<path fill="#AC3839" d="M178.668,110.574c-6.555-4.285-16.639-2.521-19.916-10.588l-4.033,2.521
		c-3.277,2.016-6.555,5.797-11.092,5.041c-1.514-0.252-2.521-2.52-2.521-4.033c-0.756-6.303,1.512-15.377,7.059-19.916
		c0.504-0.504,2.018,0.504,2.521,1.765c0,4.79-4.287,9.832-2.27,14.874c3.781-0.504,7.059-3.529,10.084-6.554
		c1.26-2.017,2.27-5.798,5.545-5.546c1.01,9.327,10.084,10.336,18.404,14.622c1.008,0.504,2.016,2.018,1.764,3.781L178.668,110.574
		L178.668,110.574z"/>
	<path fill="#2B589A" d="M62.956,104.777c-2.017-2.521-1.008-5.547,0.252-8.572c4.538-8.571,13.613-15.63,23.949-15.882
		c1.513,0,3.025,1.008,3.277,2.269c0.252,0.756,0.757,1.26,0,2.017c-0.756,0.504-1.26,0.756-2.017,1.512
		c-1.512,1.009-3.277,3.53-6.302,2.269c0-0.252-0.504-0.756-0.756-1.513c-1.765-1.008-4.034,0.504-5.546,1.261
		c-2.773,2.773-6.05,7.059-5.042,11.344c0.252,1.26,1.009,2.521,2.017,2.773c3.782,1.008,8.319-0.504,11.093-3.277l0.756-7.311
		l7.059-3.781c0.756,0,1.513,0.252,2.521,0.504c0,4.286-1.26,10.588,4.034,12.856l3.529,1.514l0.252,0.756
		c-2.773,2.27-7.563,3.529-11.345,2.521c-2.269-0.756-4.033-2.018-5.042-4.285c-5.546,2.771-11.596,6.301-17.646,5.545
		C66.233,107.045,63.964,106.289,62.956,104.777L62.956,104.777z"/>
	<path fill="#5BA792" d="M132.535,110.07c-3.025-1.766-3.783-6.555-4.791-10.084c-0.756-9.075,1.008-18.403,3.529-27.73
		c-1.764-1.765-5.293-2.017-7.814-1.513c-10.336,8.571-21.176-4.286-31.008,0.756c-0.252,0.252-0.756,0.757-1.765,0.757
		c-0.504-0.252-0.756-0.757-1.26-1.765c1.26-2.017,3.277-4.034,6.05-4.034c9.329,2.773,18.907,5.799,28.487,1.009
		c2.521-0.504,5.295,0.252,8.066,1.765c1.514-2.773,2.773-6.807,5.547-8.571c1.512-0.252,2.27,1.009,3.025,2.269
		c1.008,2.521-2.018,5.546-1.514,8.571c8.572-1.512,16.639-1.26,25.211,3.53c0,0,0.756,0.756,0,1.26
		c-8.572-1.765-18.152-3.529-26.723-1.26c-2.521,10.335-4.285,20.671,1.008,31.26c-1.26,1.512-3.277,2.773-5.545,3.529
		L132.535,110.07L132.535,110.07z"/>
	<path fill="#EF8D1F" d="M104.553,107.045c0.252-6.555,0-14.369-3.277-20.924c0-2.017,1.008-4.538,3.023-5.798
		c2.018-0.252,3.277,1.765,4.287,3.025c0.756,1.513,1.764,3.277,2.268,5.294c2.521-4.033,7.562-7.059,12.605-5.294
		c1.008,0.756,2.521,1.765,2.016,3.277l-3.527,3.277c-0.758,1.008-2.27,0.756-3.025,1.765c-1.514,0-3.529-0.756-4.287,0.504
		l-3.277,9.581L104.553,107.045L104.553,107.045z"/>
	<path fill="#5BA792" d="M47.327,131.498l-1.008-0.252c-1.261-3.277,2.016-7.059,3.781-10.336l3.025-3.277
		c1.765-2.016,6.05-4.789,8.571-2.773c3.529,2.773,7.563,6.555,12.857,3.781c5.798-2.016,11.344-8.066,17.646-4.537
		c2.773,1.514,5.799,5.295,9.58,3.781c4.033-2.52,8.57-5.545,13.613-2.268c3.023,1.764,6.301,5.041,10.336,3.275
		c9.83-8.822,20.418,6.051,30.754,1.766l1.262,0.252c1.008,1.26,0.504,3.277,0,4.789c-2.27,4.287-8.32,4.287-12.605,4.539
		c-10.588-9.58-22.688,2.52-32.771-5.295c-2.521-1.764-5.043-1.764-7.059-0.756c-4.033,2.521-8.068,5.041-12.857,1.766
		c-2.521-2.27-6.05-4.791-9.832-2.773c-5.798,3.529-12.857,8.066-19.159,5.041l-5.798-4.285c-3.277-2.521-6.554,4.033-8.571,7.311
		L47.327,131.498L47.327,131.498z"/>
	<path fill="#00554A" d="M43.545,112.086c-1.512,0-2.521-1.764-3.025-3.023c-2.017-14.622-0.252-29.244-1.765-43.613
		c-2.269-2.269-5.546-2.521-8.571-1.513c-1.765,0.504-4.034,1.765-4.538,4.033c-0.252,2.017,0.252,4.286,1.765,5.546
		c1.512,1.008,3.529,2.017,5.546,1.008c1.513-1.513,2.773-4.033,1.261-6.05c-0.252-0.504-1.765-0.252-2.269,0.252
		c-0.504,0.504-0.756,1.765-1.009,2.521c-1.008,0.504-1.764,0.252-2.521-0.252c-0.504-2.521,0.504-5.042,2.521-6.554
		c1.009,0.756,2.017,0.252,3.278,1.008c2.016,1.008,3.277,3.277,3.277,5.798c0,1.765-1.008,4.034-2.521,5.294
		c-2.017,1.513-4.538,2.017-7.059,1.513c-3.025-1.26-6.05-4.286-6.05-8.067c0-3.53,2.017-6.554,4.79-8.571
		c3.277-1.512,6.807-2.269,10.84-1.008l1.008,0.504c0.504-0.504,0-2.017,0-3.025c0-0.756,0.504-1.008,1.765-1.513l-14.37,3.278
		c-5.546,1.26-12.353,6.05-17.395,3.781l2.017-9.075c17.394-7.815,41.848-11.597,59.746-10.588c1.765,1.008,0.756,4.034,1.765,5.798
		c-0.756,1.26,1.26,2.521,0,4.285l-18.907,1.009c0.504,0.504,0.252,0.504,0.504,0.504c0.757,1.008,0.757,3.781,2.269,4.034
		c2.773-2.521,7.059-3.025,11.092-2.017c2.269,1.008,4.033,2.269,5.042,4.79c0.252,3.277-0.252,7.311-3.277,9.075
		c-2.269,1.009-4.538,1.009-7.059,0c-1.513-1.008-3.025-2.269-3.529-4.537c0-1.765,0.504-3.277,2.521-4.034
		c0.757-0.756,2.269-0.756,3.53-0.756c1.764,1.008,3.529,2.521,2.269,4.285l-0.505,0.252c-0.756-0.252-1.764-0.252-2.017-1.512
		c-0.504-0.252-1.26-0.504-1.765-0.252c-0.756,0-1.765,1.512-1.008,2.773c0.504,1.008,2.017,2.269,4.034,2.269
		c0.252,0,1.008,0,1.261-0.252c2.269-1.26,3.529-4.285,2.269-7.311c-0.756-1.765-4.033-3.025-6.555-2.521
		c-2.017,0.504-3.529,1.764-5.042,3.025c0,0.252,0,0.756,0,1.26c-1.765,13.865-1.009,28.234,0.756,42.604
		c0,0,0.252,0.504,0.756,1.008c-0.756,0.504-1.512,1.01-3.025,1.514l-5.042-58.486l-2.017,0.252l5.042,58.738
		c-0.504,0.252-1.26,0.504-2.016,0.504l-5.294-58.99l-2.269,0.252l5.294,59.242c-0.756,0-1.513,0.252-2.269,0.504l-5.042-59.746
		l-2.017,0.252l5.294,59.998c-0.756,0-1.26,0.252-1.513,0.504L43.545,112.086L43.545,112.086z"/>
</g>
</svg>
