<svg id="Layer_1" data-name="Layer 1" xmlns="http://www.w3.org/2000/svg" xmlns:xlink="http://www.w3.org/1999/xlink" viewBox="0 0 105.32253 20">
  <defs>
    <style>
      .cls-1 {
        fill: none;
      }

      .cls-2 {
        clip-path: url(#clip-path);
      }

      .cls-3 {
        fill: #231f20;
      }

      .cls-4 {
        clip-path: url(#clip-path-2);
      }

      .cls-5 {
        fill: url(#linear-gradient);
      }

      .cls-6 {
        clip-path: url(#clip-path-3);
      }

      .cls-7 {
        fill: url(#linear-gradient-2);
      }
    </style>
    <clipPath id="clip-path" transform="translate(1.63776 0.31099)">
      <rect class="cls-1" x="-1.63776" y="-0.31099" width="105.32253" height="20"/>
    </clipPath>
    <clipPath id="clip-path-2" transform="translate(1.63776 0.31099)">
      <path class="cls-1" d="M74.90574,4.21785c-.192.07844-.385.162-.579.257a6.8681,6.8681,0,0,0-4.06646,5.787A11.48749,11.48749,0,0,0,71.46576,13.806a10.2559,10.2559,0,0,0,6.25658,5.33182,9.182,9.182,0,0,0,6.54144-.74827c3.93642-1.93106,5.85509-5.32666,5.2286-9.30643a6.85069,6.85069,0,0,1-4.19032,5.755c-.1414.07018-.28486.13314-.42523.1961-3.91887,1.6689-7.69533-.128-9.63154-3.79812a9.842,9.842,0,0,1-.42625-.91547l.04541.01239c-1.05067-2.34493-.79059-4.60213,1.125-5.947a4.07491,4.07491,0,0,1,2.17051-.7524c-.12076-.00619-.24358-.01032-.36743-.01032a7.64681,7.64681,0,0,0-2.88678.59449"/>
    </clipPath>
    <linearGradient id="linear-gradient" x1="-0.06401" y1="19.37474" x2="0.96809" y2="19.37474" gradientTransform="translate(90.04678 375.18355) rotate(180) scale(18.7469)" gradientUnits="userSpaceOnUse">
      <stop offset="0" stop-color="#ed1b2f"/>
      <stop offset="0.53374" stop-color="#ed1b2e"/>
      <stop offset="0.79755" stop-color="#971b1e"/>
      <stop offset="1" stop-color="#360000"/>
    </linearGradient>
    <clipPath id="clip-path-3" transform="translate(1.63776 0.31099)">
      <path class="cls-1" d="M75.32786.77065a8.71136,8.71136,0,0,0-5.0676,9.49118,6.8681,6.8681,0,0,1,4.06646-5.787c.194-.095.387-.17855.579-.257a7.50255,7.50255,0,0,1,3.25421-.58417,5.80347,5.80347,0,0,1,3.795,1.415,8.51869,8.51869,0,0,1,1.96719,2.1189,7.76712,7.76712,0,0,1,1.57911,4.15523,3.91826,3.91826,0,0,1-1.7009,3.41728c-3.01682,2.16431-6.5982-.95676-6.5982-.95676a6.98744,6.98744,0,0,0,7.67468,1.2509c.14037-.063.28383-.12592.42523-.1961a6.85069,6.85069,0,0,0,4.19032-5.755,12.26794,12.26794,0,0,0-1.317-3.81773A10.38456,10.38456,0,0,0,82.65679.203a8.54122,8.54122,0,0,0-2.926-.514A9.96692,9.96692,0,0,0,75.32786.77065"/>
    </clipPath>
    <linearGradient id="linear-gradient-2" x1="0.0317" y1="19.3757" x2="1.0638" y2="19.3757" gradientTransform="translate(71.18078 -354.74087) scale(18.7528)" xlink:href="#linear-gradient"/>
  </defs>
  <title>cleveron</title>
  <g class="cls-2">
    <path class="cls-3" d="M99.77518.93537V6.21042a72.06036,72.06036,0,0,0,.3344,7.59211h-.05367a56.3783,56.3783,0,0,0-3.07359-6.21839L93.07067.93537H88.10111V19.07965H92.0107v-5.467c0-2.959-.0547-5.5176-.194-7.9389h.11147a60.73435,60.73435,0,0,0,3.26556,6.4052l4.02208,7.00072h4.469V.93537Z" transform="translate(1.63776 0.31099)"/>
  </g>
  <g class="cls-4">
    <rect class="cls-5" x="71.89803" y="3.93436" width="19.85859" height="16.06564"/>
  </g>
  <g class="cls-6">
    <rect class="cls-7" x="71.27877" width="19.85138" height="17.2154"/>
  </g>
  <g class="cls-2">
    <path class="cls-3" d="M72.94681,13.93753c-.47373-1.6689-1.1993-2.85272-2.51213-3.36464v-.08257A4.82936,4.82936,0,0,0,73.757,6.04921a4.53309,4.53309,0,0,0-1.75972-3.82289C70.65762,1.20351,68.70076.8,65.911.8c-1.287,0-2.48116.0516-3.52668.13521H46.23611L43.83545,8.68622c-.643,2.07452-1.23026,4.22747-1.705,6.4083h-.0836c-.4469-2.26133-1.03416-4.30591-1.67613-6.48777L38.08047.93516H23.53821V15.63224H17.11959V.93516h-4.245V15.41653a15.08035,15.08035,0,0,1-4.04066.54082c-3.76922,0-6.00372-2.29023-6.00372-5.92218,0-4.03963,2.62566-6.00372,5.97585-6.00372a10.13348,10.13348,0,0,1,1.82475.16307V.78448A16.17933,16.17933,0,0,0,8.63987.66475c-5.69718,0-10.27763,3.42037-10.27763,9.61193,0,5.16875,3.35122,9.09691,9.8586,9.09691a24.07668,24.07668,0,0,0,3.76716-.29415H35.51777V15.71481H27.78117V11.40786h5.86438V8.068H27.78117V4.2998h6.75508L39.4511,19.07945h4.97059L49.191,5.42685v13.6526H64.45574V11.94559h1.25812c1.75973.02683,2.56889.61926,3.10043,2.90742a23.45888,23.45888,0,0,0,1.28393,4.22644h4.35752a53.51444,53.51444,0,0,1-1.50893-5.14191M53.435,11.40786h5.64661V8.068H53.435V4.2998h6.80565v11.415H53.435ZM66.1329,8.9845H64.45574V4.00359a8.79771,8.79771,0,0,1,1.928-.1352c1.95479,0,3.12726.8618,3.12726,2.50387,0,1.5884-1.255,2.61224-3.37805,2.61224" transform="translate(1.63776 0.31099)"/>
  </g>
</svg>
